STARTFONT 2.1
COMMENT
COMMENT Converted from OpenType font "BeVietnam-Italic.ttf" by "otf2bdf 3.0".
COMMENT
FONT -FreeType-Be Vietnam-Medium-I-Normal--28-200-100-100-P-143-ISO10646-1
SIZE 20 100 100
FONTBOUNDINGBOX 40 38 -7 -7
STARTPROPERTIES 19
FOUNDRY "FreeType"
FAMILY_NAME "Be Vietnam"
WEIGHT_NAME "Medium"
SLANT "I"
SETWIDTH_NAME "Normal"
ADD_STYLE_NAME ""
PIXEL_SIZE 28
POINT_SIZE 200
RESOLUTION_X 100
RESOLUTION_Y 100
SPACING "P"
AVERAGE_WIDTH 143
CHARSET_REGISTRY "ISO10646"
CHARSET_ENCODING "1"
FONT_ASCENT 33
FONT_DESCENT 7
COPYRIGHT "Copyright 2019 The Bevietnam Project Authors (https://github.com/bettergui/beVietnam)"
_OTF_FONTFILE "BeVietnam-Italic.ttf"
_OTF_PSNAME "BeVietnam-Italic"
ENDPROPERTIES
CHARS 445
STARTCHAR 000D
ENCODING 13
SWIDTH 576 0
DWIDTH 16 0
BBX 0 0 0 0
BITMAP
ENDCHAR
STARTCHAR 0020
ENCODING 32
SWIDTH 216 0
DWIDTH 6 0
BBX 0 0 0 0
BITMAP
ENDCHAR
STARTCHAR 0021
ENCODING 33
SWIDTH 216 0
DWIDTH 6 0
BBX 6 21 2 0
BITMAP
1C
1C
1C
1C
18
18
18
38
38
30
30
30
30
30
20
60
00
00
60
E0
E0
ENDCHAR
STARTCHAR 0022
ENCODING 34
SWIDTH 540 0
DWIDTH 15 0
BBX 9 6 5 15
BITMAP
6180
C200
8200
C700
E780
E780
ENDCHAR
STARTCHAR 0023
ENCODING 35
SWIDTH 864 0
DWIDTH 24 0
BBX 21 19 3 0
BITMAP
003060
0060E0
0060C0
0060C0
00C180
1FFFF8
1FFFF8
018300
018300
030700
030600
070600
7FFFE0
FFFFE0
0C1C00
0C1800
1C1800
183000
183000
ENDCHAR
STARTCHAR 0024
ENCODING 36
SWIDTH 540 0
DWIDTH 15 0
BBX 15 23 2 -2
BITMAP
0040
0040
03F8
0FFC
1C9C
188E
388E
308E
3880
3900
1F80
0FF0
01F8
011C
011C
E21C
E218
6238
7270
3FE0
1FC0
0400
0400
ENDCHAR
STARTCHAR 0025
ENCODING 37
SWIDTH 792 0
DWIDTH 22 0
BBX 20 20 3 0
BITMAP
0C0000
3F0180
630380
630300
430600
C30C00
660C00
7C1800
003000
003000
006000
00C000
00C1C0
0183E0
030630
070C30
060C30
0C0C20
1C0E60
1807C0
ENDCHAR
STARTCHAR 0026
ENCODING 38
SWIDTH 612 0
DWIDTH 17 0
BBX 16 20 2 0
BITMAP
0078
01FC
038E
0706
0607
0606
0600
0700
0700
0380
0FC7
3CC6
30EC
607C
6038
E038
E07C
F0CE
7F8E
3F07
ENDCHAR
STARTCHAR 0027
ENCODING 39
SWIDTH 288 0
DWIDTH 8 0
BBX 4 7 4 14
BITMAP
60
F0
F0
30
20
60
C0
ENDCHAR
STARTCHAR 0028
ENCODING 40
SWIDTH 432 0
DWIDTH 12 0
BBX 10 28 4 -6
BITMAP
0040
0080
0180
0300
0600
0C00
1C00
1800
3800
3000
7000
7000
6000
E000
E000
E000
E000
E000
E000
E000
E000
6000
6000
6000
3000
3000
1800
0800
ENDCHAR
STARTCHAR 0029
ENCODING 41
SWIDTH 468 0
DWIDTH 13 0
BBX 9 28 2 -6
BITMAP
0800
0C00
0600
0300
0300
0380
0180
0180
0180
0180
0180
0180
0180
0180
0180
0380
0380
0300
0700
0700
0600
0C00
0C00
1800
3000
6000
C000
8000
ENDCHAR
STARTCHAR 002A
ENCODING 42
SWIDTH 468 0
DWIDTH 13 0
BBX 10 10 5 11
BITMAP
0600
0440
64C0
7780
1E00
3F00
EB80
9900
1800
1800
ENDCHAR
STARTCHAR 002B
ENCODING 43
SWIDTH 576 0
DWIDTH 16 0
BBX 11 11 4 3
BITMAP
0600
0600
0600
0600
FFE0
FFE0
0C00
0C00
0C00
0C00
0C00
ENDCHAR
STARTCHAR 002C
ENCODING 44
SWIDTH 252 0
DWIDTH 7 0
BBX 4 7 2 -4
BITMAP
70
F0
F0
30
20
20
C0
ENDCHAR
STARTCHAR 002D
ENCODING 45
SWIDTH 576 0
DWIDTH 16 0
BBX 11 2 6 8
BITMAP
FFE0
FFC0
ENDCHAR
STARTCHAR 002E
ENCODING 46
SWIDTH 252 0
DWIDTH 7 0
BBX 4 3 2 0
BITMAP
60
F0
60
ENDCHAR
STARTCHAR 002F
ENCODING 47
SWIDTH 504 0
DWIDTH 14 0
BBX 17 26 1 -4
BITMAP
000180
000300
000700
000600
000E00
000C00
001800
001800
003000
007000
006000
00E000
00C000
018000
038000
030000
070000
060000
0C0000
1C0000
180000
380000
300000
600000
E00000
C00000
ENDCHAR
STARTCHAR 0030
ENCODING 48
SWIDTH 576 0
DWIDTH 16 0
BBX 14 20 3 0
BITMAP
01E0
0FF8
1E3C
381C
300C
700C
600C
600C
E00C
E00C
E01C
C01C
C01C
C018
C038
C038
E070
F0E0
7FC0
3F80
ENDCHAR
STARTCHAR 0031
ENCODING 49
SWIDTH 468 0
DWIDTH 13 0
BBX 10 19 3 0
BITMAP
0380
0F80
1F80
3B80
3300
2300
0300
0300
0700
0600
0600
0600
0600
0600
0E00
0C00
0C00
FFC0
FFC0
ENDCHAR
STARTCHAR 0032
ENCODING 50
SWIDTH 576 0
DWIDTH 16 0
BBX 15 20 2 0
BITMAP
01F0
07FC
0F1E
0C0E
1806
1806
3806
000E
000C
0018
0038
0070
01C0
0380
0700
1E00
3800
7000
FFF8
FFF8
ENDCHAR
STARTCHAR 0033
ENCODING 51
SWIDTH 576 0
DWIDTH 16 0
BBX 14 20 3 0
BITMAP
03E0
0FF8
1E3C
381C
300C
000C
001C
0018
0078
07E0
07E0
0070
0038
0018
0038
C038
C030
E0F0
7FE0
3F80
ENDCHAR
STARTCHAR 0034
ENCODING 52
SWIDTH 576 0
DWIDTH 16 0
BBX 14 19 2 0
BITMAP
003C
007C
00F8
00D8
0198
0318
0738
0E38
1C30
1830
3030
6030
FFFC
FFFC
0060
0060
0060
00E0
00E0
ENDCHAR
STARTCHAR 0035
ENCODING 53
SWIDTH 576 0
DWIDTH 16 0
BBX 14 19 3 0
BITMAP
1FFC
1FFC
1800
3000
3000
3000
33E0
7FF0
7838
7018
001C
001C
0018
0018
C038
E070
70E0
7FC0
1F80
ENDCHAR
STARTCHAR 0036
ENCODING 54
SWIDTH 576 0
DWIDTH 16 0
BBX 13 19 3 0
BITMAP
01C0
0180
0300
0600
0E00
1C00
3800
37E0
7DF0
7038
E038
C018
C018
C038
C030
C070
E0E0
7FC0
3F80
ENDCHAR
STARTCHAR 0037
ENCODING 55
SWIDTH 504 0
DWIDTH 14 0
BBX 13 19 3 0
BITMAP
7FF8
7FF8
0038
0030
0060
00E0
00C0
01C0
0180
0300
0700
0600
0E00
1C00
1800
3800
3000
7000
E000
ENDCHAR
STARTCHAR 0038
ENCODING 56
SWIDTH 576 0
DWIDTH 16 0
BBX 15 20 2 0
BITMAP
00F0
07FC
0F1E
0C06
1806
1806
1806
180C
1C1C
0FF0
1FF8
381C
700C
600C
600C
E00C
E01C
7038
7FF0
1FE0
ENDCHAR
STARTCHAR 0039
ENCODING 57
SWIDTH 576 0
DWIDTH 16 0
BBX 13 20 4 0
BITMAP
07C0
1FF0
3C70
7038
6018
C018
C018
C018
C038
E070
F0F0
7FE0
1EE0
01C0
0180
0300
0600
0E00
1C00
3800
ENDCHAR
STARTCHAR 003A
ENCODING 58
SWIDTH 288 0
DWIDTH 8 0
BBX 3 14 2 1
BITMAP
E0
E0
40
00
00
00
00
00
00
00
00
60
E0
E0
ENDCHAR
STARTCHAR 003B
ENCODING 59
SWIDTH 288 0
DWIDTH 8 0
BBX 6 19 2 -4
BITMAP
08
1C
1C
18
00
00
00
00
00
00
00
00
70
70
70
10
30
20
C0
ENDCHAR
STARTCHAR 003C
ENCODING 60
SWIDTH 540 0
DWIDTH 15 0
BBX 11 12 4 3
BITMAP
0020
00E0
03C0
0F00
3C00
F000
F000
7C00
1E00
0780
01C0
00C0
ENDCHAR
STARTCHAR 003D
ENCODING 61
SWIDTH 684 0
DWIDTH 19 0
BBX 15 8 4 5
BITMAP
7FFE
7FFC
0000
0000
0000
0000
FFF8
FFF8
ENDCHAR
STARTCHAR 003E
ENCODING 62
SWIDTH 540 0
DWIDTH 15 0
BBX 12 12 3 3
BITMAP
3000
3C00
1E00
0780
01E0
00F0
00E0
03C0
0F00
3C00
7000
C000
ENDCHAR
STARTCHAR 003F
ENCODING 63
SWIDTH 576 0
DWIDTH 16 0
BBX 13 20 4 0
BITMAP
07C0
1FF0
3CF0
7038
E038
E038
0038
0030
0070
00E0
01C0
0700
0600
0C00
0C00
0000
0000
1800
1C00
1800
ENDCHAR
STARTCHAR 0040
ENCODING 64
SWIDTH 1008 0
DWIDTH 28 0
BBX 25 25 3 -5
BITMAP
000F8000
007FF000
01E07C00
07001E00
0E000600
1C000300
18000300
307F8180
60E78180
61C38180
61818180
C1818180
C3010300
C3030300
C3030300
C3858600
C1FDDC00
C0F8F800
60000000
60000000
30000000
3C000000
1F800000
07FFC000
003FC000
ENDCHAR
STARTCHAR 0041
ENCODING 65
SWIDTH 648 0
DWIDTH 18 0
BBX 17 19 1 0
BITMAP
003800
003800
007C00
00FC00
00CC00
01CC00
018C00
038E00
030E00
070600
060600
0FFE00
0FFF00
180700
380300
300300
700300
600380
E00380
ENDCHAR
STARTCHAR 0042
ENCODING 66
SWIDTH 612 0
DWIDTH 17 0
BBX 16 19 2 0
BITMAP
1FFE
1FFE
1807
1807
1807
3807
3806
301C
3FF8
3FFC
300E
7006
7006
6006
6006
600C
E03C
FFF8
FFE0
ENDCHAR
STARTCHAR 0043
ENCODING 67
SWIDTH 684 0
DWIDTH 19 0
BBX 18 20 3 0
BITMAP
00F800
03FE00
0F8F00
1C0380
380180
3801C0
7001C0
600000
E00000
E00000
E00000
E00000
E00000
E00000
E00300
E00700
700E00
783C00
3FF800
0FE000
ENDCHAR
STARTCHAR 0044
ENCODING 68
SWIDTH 684 0
DWIDTH 19 0
BBX 18 19 2 0
BITMAP
1FFE00
1FFF00
180780
180380
180180
3801C0
3801C0
3001C0
3001C0
3001C0
300180
700380
700380
600700
600700
601E00
E07C00
FFF000
FFC000
ENDCHAR
STARTCHAR 0045
ENCODING 69
SWIDTH 540 0
DWIDTH 15 0
BBX 15 19 2 0
BITMAP
1FFE
1FFE
1800
1800
1800
3800
3800
3000
3FF8
3FF8
3000
7000
7000
6000
6000
6000
E000
FFF0
FFF0
ENDCHAR
STARTCHAR 0046
ENCODING 70
SWIDTH 504 0
DWIDTH 14 0
BBX 15 19 2 0
BITMAP
1FFE
1FFE
1800
1800
1800
3800
3800
3000
3FF0
3FF0
3000
7000
7000
6000
6000
6000
E000
E000
E000
ENDCHAR
STARTCHAR 0047
ENCODING 71
SWIDTH 684 0
DWIDTH 19 0
BBX 17 20 3 0
BITMAP
00F800
03FE00
0F9F00
1C0380
380380
300180
700000
600000
E00000
E00000
E07F80
C07F80
C00300
C00300
E00700
E00700
700F00
783B00
3FF200
0FE600
ENDCHAR
STARTCHAR 0048
ENCODING 72
SWIDTH 648 0
DWIDTH 18 0
BBX 18 19 2 0
BITMAP
1C01C0
1801C0
1801C0
180180
180180
380180
380380
300380
3FFF80
3FFF00
300300
700300
700700
600700
600700
600600
E00600
E00600
E00E00
ENDCHAR
STARTCHAR 0049
ENCODING 73
SWIDTH 216 0
DWIDTH 6 0
BBX 6 19 2 0
BITMAP
1C
1C
18
18
18
38
38
38
30
30
30
70
70
70
60
60
60
E0
E0
ENDCHAR
STARTCHAR 004A
ENCODING 74
SWIDTH 324 0
DWIDTH 9 0
BBX 9 19 1 0
BITMAP
0180
0180
0180
0180
0380
0380
0300
0300
0300
0700
0700
0700
0600
0600
0600
0E00
0E00
7C00
F800
ENDCHAR
STARTCHAR 004B
ENCODING 75
SWIDTH 612 0
DWIDTH 17 0
BBX 16 19 2 0
BITMAP
1C07
181C
1838
1870
38E0
39C0
3B80
3700
3F00
3F00
7B80
7180
71C0
60E0
60E0
6070
E030
E038
E01C
ENDCHAR
STARTCHAR 004C
ENCODING 76
SWIDTH 504 0
DWIDTH 14 0
BBX 12 19 2 0
BITMAP
1C00
1800
1800
1800
1800
3800
3800
3000
3000
3000
3000
7000
7000
6000
6000
6000
E000
FFF0
FFF0
ENDCHAR
STARTCHAR 004D
ENCODING 77
SWIDTH 792 0
DWIDTH 22 0
BBX 22 19 2 0
BITMAP
1E003C
1E007C
1F007C
1F00F8
1B00D8
3B01D8
3B0198
3383B8
338338
318730
318E30
71CC30
71DC30
61D870
60F870
60F060
E0F060
E0E060
E0E0E0
ENDCHAR
STARTCHAR 004E
ENCODING 78
SWIDTH 684 0
DWIDTH 19 0
BBX 19 19 2 0
BITMAP
1E00E0
1E00E0
1F00C0
1F00C0
1B80C0
3B80C0
39C1C0
31C1C0
30E180
30E180
307180
707180
703380
603B80
601F00
601F00
E00F00
E00F00
E00700
ENDCHAR
STARTCHAR 004F
ENCODING 79
SWIDTH 720 0
DWIDTH 20 0
BBX 18 20 3 0
BITMAP
00F800
03FE00
0F9F00
1E0380
380380
3001C0
7001C0
6001C0
E001C0
E001C0
E001C0
C00180
C00380
E00380
E00700
E00700
700E00
783C00
3FF800
0FE000
ENDCHAR
STARTCHAR 0050
ENCODING 80
SWIDTH 576 0
DWIDTH 16 0
BBX 16 19 2 0
BITMAP
1FFC
1FFE
180E
1807
1807
3807
3807
3006
300E
301C
3FF8
7FF0
7000
6000
6000
6000
E000
E000
E000
ENDCHAR
STARTCHAR 0051
ENCODING 81
SWIDTH 720 0
DWIDTH 20 0
BBX 18 22 3 -2
BITMAP
00F800
03FE00
0F9F00
1E0380
380380
3001C0
7001C0
6001C0
E001C0
E001C0
E001C0
C00180
C00380
E0C380
E0E700
E06700
703E00
783C00
3FF800
0FEC00
000E00
000600
ENDCHAR
STARTCHAR 0052
ENCODING 82
SWIDTH 576 0
DWIDTH 16 0
BBX 16 19 2 0
BITMAP
1FFC
1FFE
180E
1807
1807
3807
3806
300E
301C
3FF8
3FF0
71C0
70C0
60E0
6060
6070
E030
E038
E018
ENDCHAR
STARTCHAR 0053
ENCODING 83
SWIDTH 576 0
DWIDTH 16 0
BBX 16 20 2 0
BITMAP
01F0
07FC
0F1E
1C0E
1806
3807
3800
3800
1E00
0FE0
07F8
003C
001C
000C
E00C
E01C
701C
7878
3FF0
1FC0
ENDCHAR
STARTCHAR 0054
ENCODING 84
SWIDTH 576 0
DWIDTH 16 0
BBX 14 19 4 0
BITMAP
FFFC
FFFC
0300
0300
0700
0700
0700
0600
0600
0600
0E00
0E00
0C00
0C00
0C00
0C00
1C00
1C00
1800
ENDCHAR
STARTCHAR 0055
ENCODING 85
SWIDTH 684 0
DWIDTH 19 0
BBX 17 19 3 0
BITMAP
300180
300180
300180
700380
700380
600380
600300
600300
600300
E00700
E00700
C00600
C00600
E00E00
E00C00
E01C00
787800
3FF000
1FC000
ENDCHAR
STARTCHAR 0056
ENCODING 86
SWIDTH 612 0
DWIDTH 17 0
BBX 16 19 4 0
BITMAP
C003
C007
E006
E00C
600C
6018
6038
7030
7070
7060
30E0
30C0
31C0
3980
3B80
1B00
1F00
1E00
1E00
ENDCHAR
STARTCHAR 0057
ENCODING 87
SWIDTH 972 0
DWIDTH 27 0
BBX 26 19 4 0
BITMAP
C00C00C0
C01E01C0
C01E0180
C03E0380
E0360300
E0660700
E0660600
E0C60600
60C70E00
61870C00
61831C00
63831800
63033800
67033000
66033000
7E03E000
7C03E000
7C01E000
3801C000
ENDCHAR
STARTCHAR 0058
ENCODING 88
SWIDTH 648 0
DWIDTH 18 0
BBX 18 19 2 0
BITMAP
1C01C0
1C0380
0E0700
0E0600
070C00
071C00
03B800
03F000
01E000
01E000
03E000
077000
067000
0C3800
1C3800
381800
701C00
E00C00
C00E00
ENDCHAR
STARTCHAR 0059
ENCODING 89
SWIDTH 612 0
DWIDTH 17 0
BBX 14 19 5 0
BITMAP
C01C
C038
E030
6070
60E0
70C0
31C0
3380
3B00
1F00
1E00
1C00
1C00
1C00
1800
1800
1800
1800
3800
ENDCHAR
STARTCHAR 005A
ENCODING 90
SWIDTH 612 0
DWIDTH 17 0
BBX 16 19 2 0
BITMAP
1FFF
3FFF
0007
000E
001C
0038
0070
00E0
01C0
0380
0700
0600
0E00
1C00
3800
7000
E000
FFF8
FFF8
ENDCHAR
STARTCHAR 005B
ENCODING 91
SWIDTH 432 0
DWIDTH 12 0
BBX 13 28 1 -5
BITMAP
07F8
07F8
0600
0600
0400
0C00
0C00
0C00
0C00
0C00
1800
1800
1800
1800
1800
1800
3000
3000
3000
3000
3000
2000
6000
6000
6000
6000
7F80
FF00
ENDCHAR
STARTCHAR 005C
ENCODING 92
SWIDTH 504 0
DWIDTH 14 0
BBX 9 26 3 -4
BITMAP
E000
E000
6000
6000
7000
3000
3000
3000
3800
1800
1800
1800
1C00
0C00
0C00
0C00
0E00
0600
0600
0700
0700
0300
0300
0380
0180
0180
ENDCHAR
STARTCHAR 005D
ENCODING 93
SWIDTH 432 0
DWIDTH 12 0
BBX 13 28 1 -5
BITMAP
07F8
07F8
0018
0030
0030
0030
0030
0030
0060
0060
0060
0060
0060
0060
00C0
00C0
00C0
00C0
00C0
00C0
0180
0180
0180
0180
0180
0300
FF00
FF00
ENDCHAR
STARTCHAR 005E
ENCODING 94
SWIDTH 396 0
DWIDTH 11 0
BBX 9 5 4 16
BITMAP
0E00
1F00
3300
6380
C180
ENDCHAR
STARTCHAR 005F
ENCODING 95
SWIDTH 684 0
DWIDTH 19 0
BBX 14 2 3 0
BITMAP
FFFC
FFFC
ENDCHAR
STARTCHAR 0060
ENCODING 96
SWIDTH 216 0
DWIDTH 6 0
BBX 4 5 5 17
BITMAP
C0
60
60
30
30
ENDCHAR
STARTCHAR 0061
ENCODING 97
SWIDTH 576 0
DWIDTH 16 0
BBX 15 15 2 0
BITMAP
07C6
0FE6
1C36
381E
700E
600C
600C
E00C
E01C
E01C
E01C
E038
7058
7F98
3F18
ENDCHAR
STARTCHAR 0062
ENCODING 98
SWIDTH 612 0
DWIDTH 17 0
BBX 15 21 2 0
BITMAP
0C00
1C00
1C00
1800
1800
1800
18F8
3BFC
3E1E
3C0E
3806
3006
7006
7006
700E
700E
700C
701C
F838
EFF0
E7E0
ENDCHAR
STARTCHAR 0063
ENCODING 99
SWIDTH 540 0
DWIDTH 15 0
BBX 14 15 2 0
BITMAP
03E0
0FF8
1C38
381C
700C
600C
6000
E000
E000
E000
E018
6030
7070
3FE0
1F80
ENDCHAR
STARTCHAR 0064
ENCODING 100
SWIDTH 576 0
DWIDTH 16 0
BBX 16 21 2 0
BITMAP
0003
0003
0003
0007
0007
0007
07C6
0FE6
1C36
381E
700E
600C
600C
E00C
E01C
E01C
E01C
E038
7058
7FD8
3F18
ENDCHAR
STARTCHAR 0065
ENCODING 101
SWIDTH 540 0
DWIDTH 15 0
BBX 14 15 2 0
BITMAP
07F0
0FF8
1C1C
301C
701C
601C
FFF8
FFF0
E000
E000
E018
6038
7070
3FE0
1F80
ENDCHAR
STARTCHAR 0066
ENCODING 102
SWIDTH 360 0
DWIDTH 10 0
BBX 14 27 -1 -6
BITMAP
007C
00E0
01C0
01C0
0180
07F8
07F8
0380
0380
0380
0300
0300
0300
0700
0700
0700
0600
0600
0600
0E00
0E00
0C00
0C00
0C00
1C00
F800
F000
ENDCHAR
STARTCHAR 0067
ENCODING 103
SWIDTH 576 0
DWIDTH 16 0
BBX 15 21 2 -6
BITMAP
07C6
0FE6
1C36
381E
700E
600C
600C
E00C
E01C
E01C
E03C
7078
78D8
3F98
1E38
0038
0030
0070
11E0
1FC0
1F00
ENDCHAR
STARTCHAR 0068
ENCODING 104
SWIDTH 612 0
DWIDTH 17 0
BBX 15 21 2 0
BITMAP
0C00
1C00
1C00
1800
1800
1800
18F8
3BFC
3E1C
380E
380E
300E
300E
700C
700C
600C
601C
601C
E01C
E018
E018
ENDCHAR
STARTCHAR 0069
ENCODING 105
SWIDTH 216 0
DWIDTH 6 0
BBX 6 20 2 0
BITMAP
1C
1C
08
00
00
18
18
38
38
30
30
30
30
70
70
60
60
60
60
E0
ENDCHAR
STARTCHAR 006A
ENCODING 106
SWIDTH 252 0
DWIDTH 7 0
BBX 10 26 -2 -6
BITMAP
00C0
01C0
0080
0000
0000
0180
0180
0180
0380
0380
0300
0300
0300
0700
0700
0700
0600
0600
0600
0E00
0E00
0E00
0C00
1C00
FC00
F000
ENDCHAR
STARTCHAR 006B
ENCODING 107
SWIDTH 504 0
DWIDTH 14 0
BBX 13 21 2 0
BITMAP
0C00
1C00
1C00
1C00
1800
1800
1838
3870
38E0
39C0
3380
3700
3C00
7C00
7E00
7700
6300
6380
61C0
E0C0
E0E0
ENDCHAR
STARTCHAR 006C
ENCODING 108
SWIDTH 288 0
DWIDTH 8 0
BBX 5 21 3 0
BITMAP
18
38
38
38
30
30
30
70
70
70
60
60
60
E0
E0
E0
C0
C0
C0
F8
F8
ENDCHAR
STARTCHAR 006D
ENCODING 109
SWIDTH 936 0
DWIDTH 26 0
BBX 24 15 2 0
BITMAP
19F07C
3BF8FE
3E3D8F
381F07
380E03
300C03
300C03
701C03
701C07
601C07
601807
601806
E01806
E03806
E0380E
ENDCHAR
STARTCHAR 006E
ENCODING 110
SWIDTH 612 0
DWIDTH 17 0
BBX 15 15 2 0
BITMAP
18F8
3BFC
3E1C
380E
380E
300E
300E
700C
700C
600C
601C
601C
E01C
E018
E018
ENDCHAR
STARTCHAR 006F
ENCODING 111
SWIDTH 576 0
DWIDTH 16 0
BBX 14 15 2 0
BITMAP
03E0
0FF8
1C38
381C
700C
600C
600C
E00C
E01C
E01C
E018
6038
7070
3FE0
1F80
ENDCHAR
STARTCHAR 0070
ENCODING 112
SWIDTH 612 0
DWIDTH 17 0
BBX 16 21 1 -6
BITMAP
0C7C
1DFE
1F0F
1E07
1C03
1803
3803
3803
3807
3807
3806
380E
7C1C
77F8
73F0
6000
6000
6000
E000
E000
E000
ENDCHAR
STARTCHAR 0071
ENCODING 113
SWIDTH 576 0
DWIDTH 16 0
BBX 15 21 2 -6
BITMAP
07C6
0FE6
1C36
381E
700E
600C
600C
E00C
E01C
E01C
E01C
E038
7058
7FD8
3F18
0038
0038
0030
0030
0030
0070
ENDCHAR
STARTCHAR 0072
ENCODING 114
SWIDTH 324 0
DWIDTH 9 0
BBX 10 15 2 0
BITMAP
39C0
3BC0
37C0
3800
3000
3000
7000
7000
6000
6000
6000
6000
E000
E000
C000
ENDCHAR
STARTCHAR 0073
ENCODING 115
SWIDTH 468 0
DWIDTH 13 0
BBX 12 15 2 0
BITMAP
07C0
1FE0
3870
3030
7030
7000
3E00
1FC0
03E0
0060
C060
E060
E0E0
7FC0
3F00
ENDCHAR
STARTCHAR 0074
ENCODING 116
SWIDTH 396 0
DWIDTH 11 0
BBX 9 19 3 0
BITMAP
0C00
0C00
1C00
1C00
FF80
FF80
1800
1800
3800
3800
3000
3000
3000
3000
7000
7000
7000
7E00
3E00
ENDCHAR
STARTCHAR 0075
ENCODING 117
SWIDTH 576 0
DWIDTH 16 0
BBX 14 15 3 0
BITMAP
700C
700C
701C
601C
601C
6018
E018
E018
E038
C038
C038
E070
F0B0
7FB0
3E70
ENDCHAR
STARTCHAR 0076
ENCODING 118
SWIDTH 540 0
DWIDTH 15 0
BBX 14 15 3 0
BITMAP
E00C
6018
6038
6030
7070
7060
30E0
30C0
31C0
3180
3B80
1B00
1E00
1E00
1C00
ENDCHAR
STARTCHAR 0077
ENCODING 119
SWIDTH 792 0
DWIDTH 22 0
BBX 21 15 3 0
BITMAP
E03018
607018
607030
60F030
60F860
61F860
6198E0
6398C0
7319C0
771980
761980
3E1F00
3C1F00
3C0E00
380E00
ENDCHAR
STARTCHAR 0078
ENCODING 120
SWIDTH 540 0
DWIDTH 15 0
BBX 15 15 1 0
BITMAP
3806
1C0C
1C1C
0E38
0E70
0760
07C0
0380
07C0
06C0
0CE0
1C60
3870
7070
E038
ENDCHAR
STARTCHAR 0079
ENCODING 121
SWIDTH 468 0
DWIDTH 13 0
BBX 16 21 0 -6
BITMAP
1803
1807
1C06
1C0C
0C1C
0C18
0C38
0E30
0E70
0660
06C0
06C0
0780
0380
0300
0600
0E00
0C00
3C00
F800
E000
ENDCHAR
STARTCHAR 007A
ENCODING 122
SWIDTH 468 0
DWIDTH 13 0
BBX 13 15 2 0
BITMAP
3FF8
3FF8
0038
0070
00E0
01C0
0380
0700
0E00
1C00
3800
7000
E000
FFE0
FFE0
ENDCHAR
STARTCHAR 007B
ENCODING 123
SWIDTH 432 0
DWIDTH 12 0
BBX 11 29 4 -6
BITMAP
03E0
07E0
0600
0C00
0C00
0C00
0C00
0C00
1C00
1800
1800
1800
1800
3000
E000
3000
3000
3000
3000
3000
7000
6000
6000
6000
6000
6000
6000
7C00
3C00
ENDCHAR
STARTCHAR 007C
ENCODING 124
SWIDTH 288 0
DWIDTH 8 0
BBX 7 33 2 -7
BITMAP
06
06
06
06
06
0E
0C
0C
0C
0C
0C
1C
18
18
18
18
18
38
30
30
30
30
30
60
60
60
60
60
60
C0
C0
C0
C0
ENDCHAR
STARTCHAR 007D
ENCODING 125
SWIDTH 468 0
DWIDTH 13 0
BBX 11 29 2 -6
BITMAP
07C0
07E0
0060
0060
0060
00E0
00C0
00C0
00C0
00C0
00C0
0180
0180
01C0
00E0
0180
0180
0300
0300
0300
0300
0300
0700
0600
0600
0600
0E00
FC00
F800
ENDCHAR
STARTCHAR 007E
ENCODING 126
SWIDTH 540 0
DWIDTH 15 0
BBX 11 3 4 9
BITMAP
3C60
7FC0
C380
ENDCHAR
STARTCHAR 00A0
ENCODING 160
SWIDTH 216 0
DWIDTH 6 0
BBX 0 0 0 0
BITMAP
ENDCHAR
STARTCHAR 00A1
ENCODING 161
SWIDTH 252 0
DWIDTH 7 0
BBX 6 21 2 -7
BITMAP
0C
1C
0C
00
00
18
18
18
30
30
30
30
30
70
70
70
60
60
E0
E0
E0
ENDCHAR
STARTCHAR 00A2
ENCODING 162
SWIDTH 576 0
DWIDTH 16 0
BBX 13 19 3 -2
BITMAP
0100
0100
07E0
1FF0
3938
7118
6218
E218
C200
C200
C200
C600
C430
E470
E4E0
7FC0
3F80
0C00
0800
ENDCHAR
STARTCHAR 00A3
ENCODING 163
SWIDTH 576 0
DWIDTH 16 0
BBX 16 20 1 0
BITMAP
00F8
03FE
078E
0E07
0C07
1C07
1C00
0C00
0E00
0E00
0700
3FF0
3FF0
0700
0700
0600
0C00
1800
FFFC
FFFC
ENDCHAR
STARTCHAR 00A4
ENCODING 164
SWIDTH 576 0
DWIDTH 16 0
BBX 14 13 3 4
BITMAP
33CC
3FF8
1870
3038
6018
6018
6018
6030
6030
70E0
7FF0
DF30
8000
ENDCHAR
STARTCHAR 00A5
ENCODING 165
SWIDTH 612 0
DWIDTH 17 0
BBX 15 19 4 0
BITMAP
600E
701C
7018
3038
3070
3860
18E0
19C0
1D80
0F80
0F00
7FE0
0E00
0E00
FFC0
FFC0
0C00
0C00
1C00
ENDCHAR
STARTCHAR 00A6
ENCODING 166
SWIDTH 288 0
DWIDTH 8 0
BBX 7 33 2 -7
BITMAP
06
06
06
06
06
0E
0C
0C
0C
0C
0C
1C
18
18
00
00
00
00
00
30
30
30
30
60
60
60
60
60
60
C0
C0
C0
C0
ENDCHAR
STARTCHAR 00A7
ENCODING 167
SWIDTH 540 0
DWIDTH 15 0
BBX 14 20 2 0
BITMAP
01E0
07F8
0E38
181C
1800
1C00
0FC0
1FF0
3038
701C
701C
7818
3FF0
0FE0
00F0
0070
E070
7060
7FE0
3F80
ENDCHAR
STARTCHAR 00A8
ENCODING 168
SWIDTH 360 0
DWIDTH 10 0
BBX 9 3 4 17
BITMAP
E380
E380
4200
ENDCHAR
STARTCHAR 00A9
ENCODING 169
SWIDTH 792 0
DWIDTH 22 0
BBX 20 20 3 0
BITMAP
007E00
03FF80
0701C0
1C00E0
383860
31FC30
638630
460330
C60330
CC0030
CC0030
8C0030
8C0620
C60C60
C7B840
C3F0C0
600180
300700
1F7E00
0FF800
ENDCHAR
STARTCHAR 00AA
ENCODING 170
SWIDTH 144 0
DWIDTH 4 0
BBX 4 4 2 11
BITMAP
70
D0
90
F0
ENDCHAR
STARTCHAR 00AB
ENCODING 171
SWIDTH 612 0
DWIDTH 17 0
BBX 16 12 3 3
BITMAP
0307
060E
0C1C
1838
7070
E0C0
C1C0
60E0
7060
3830
1838
0C1C
ENDCHAR
STARTCHAR 00AC
ENCODING 172
SWIDTH 648 0
DWIDTH 18 0
BBX 13 7 5 8
BITMAP
FFF8
FFF8
0018
0018
0018
0018
0030
ENDCHAR
STARTCHAR 00AD
ENCODING 173
SWIDTH 576 0
DWIDTH 16 0
BBX 11 2 6 8
BITMAP
FFE0
FFC0
ENDCHAR
STARTCHAR 00AE
ENCODING 174
SWIDTH 324 0
DWIDTH 9 0
BBX 7 7 4 12
BITMAP
7C
5A
AA
B2
AC
4C
30
ENDCHAR
STARTCHAR 00AF
ENCODING 175
SWIDTH 360 0
DWIDTH 10 0
BBX 8 1 4 18
BITMAP
FF
ENDCHAR
STARTCHAR 00B0
ENCODING 176
SWIDTH 288 0
DWIDTH 8 0
BBX 6 5 5 19
BITMAP
38
48
8C
C8
70
ENDCHAR
STARTCHAR 00B1
ENCODING 177
SWIDTH 576 0
DWIDTH 16 0
BBX 13 15 3 0
BITMAP
0180
0180
0180
0380
3FF8
3FF8
0300
0300
0300
0600
0600
0000
0000
FFE0
FFE0
ENDCHAR
STARTCHAR 00B2
ENCODING 178
SWIDTH 288 0
DWIDTH 8 0
BBX 8 10 3 11
BITMAP
1E
37
63
02
06
0C
18
30
C0
FE
ENDCHAR
STARTCHAR 00B3
ENCODING 179
SWIDTH 288 0
DWIDTH 8 0
BBX 8 11 3 10
BITMAP
1E
33
63
03
1E
1E
02
02
C6
FC
30
ENDCHAR
STARTCHAR 00B4
ENCODING 180
SWIDTH 216 0
DWIDTH 6 0
BBX 5 5 4 17
BITMAP
18
30
70
60
C0
ENDCHAR
STARTCHAR 00B5
ENCODING 181
SWIDTH 612 0
DWIDTH 17 0
BBX 16 21 1 -6
BITMAP
1C06
1C06
180E
180E
180E
380C
380C
380C
301C
301C
301C
7038
7878
7FDF
6F0F
6000
6000
E000
E000
E000
C000
ENDCHAR
STARTCHAR 00B6
ENCODING 182
SWIDTH 504 0
DWIDTH 14 0
BBX 13 19 3 0
BITMAP
1FF8
3FF8
7F98
FF98
FF90
FF90
FF30
FF30
7F30
0F30
0320
0320
0260
0260
0660
0660
0640
0640
04C0
ENDCHAR
STARTCHAR 00B7
ENCODING 183
SWIDTH 252 0
DWIDTH 7 0
BBX 3 3 5 9
BITMAP
C0
E0
C0
ENDCHAR
STARTCHAR 00B8
ENCODING 184
SWIDTH 216 0
DWIDTH 6 0
BBX 5 7 0 -7
BITMAP
60
40
78
08
08
F8
E0
ENDCHAR
STARTCHAR 00B9
ENCODING 185
SWIDTH 252 0
DWIDTH 7 0
BBX 5 10 3 11
BITMAP
18
78
58
10
10
10
30
30
30
F8
ENDCHAR
STARTCHAR 00BA
ENCODING 186
SWIDTH 144 0
DWIDTH 4 0
BBX 4 4 2 11
BITMAP
30
50
D0
70
ENDCHAR
STARTCHAR 00BB
ENCODING 187
SWIDTH 612 0
DWIDTH 17 0
BBX 16 12 2 3
BITMAP
3070
3830
1C18
0C1C
060E
0707
0307
060E
1C1C
3830
7060
E0C0
ENDCHAR
STARTCHAR 00BC
ENCODING 188
SWIDTH 792 0
DWIDTH 22 0
BBX 19 19 3 0
BITMAP
3800E0
780180
580380
100700
100600
300C00
301800
303800
FC3000
0060E0
00C0E0
01C160
018240
0306C0
060CC0
0E0FE0
1C0FE0
180080
300080
ENDCHAR
STARTCHAR 00BD
ENCODING 189
SWIDTH 828 0
DWIDTH 23 0
BBX 20 19 3 0
BITMAP
3800E0
7800C0
580180
100300
100700
300E00
300C00
301800
FC3000
0070E0
0061F0
00C310
018010
038030
030060
0601C0
0C0300
1C07F0
1807E0
ENDCHAR
STARTCHAR 00BE
ENCODING 190
SWIDTH 828 0
DWIDTH 23 0
BBX 20 19 3 1
BITMAP
3E0060
6300C0
030180
060380
1C0300
060600
060C00
C61C00
7C3800
303070
006070
00C0A0
01C120
018360
030660
0607F0
0E0FF0
0C0040
1800C0
ENDCHAR
STARTCHAR 00BF
ENCODING 191
SWIDTH 504 0
DWIDTH 14 0
BBX 13 20 2 -7
BITMAP
00E0
00E0
00C0
0000
0000
01C0
0180
0380
0700
0E00
3800
3000
6000
6000
E018
E038
E070
79E0
3FC0
1F00
ENDCHAR
STARTCHAR 00C0
ENCODING 192
SWIDTH 648 0
DWIDTH 18 0
BBX 17 26 1 0
BITMAP
006000
007000
003000
001800
001800
000000
000000
003800
003800
007C00
00FC00
00CC00
01CC00
018C00
038E00
030E00
070600
060600
0FFE00
0FFF00
180700
380300
300300
700300
600380
E00380
ENDCHAR
STARTCHAR 00C1
ENCODING 193
SWIDTH 648 0
DWIDTH 18 0
BBX 17 26 1 0
BITMAP
000380
000700
000600
000C00
001800
000000
000000
003800
003800
007C00
00FC00
00CC00
01CC00
018C00
038E00
030E00
070600
060600
0FFE00
0FFF00
180700
380300
300300
700300
600380
E00380
ENDCHAR
STARTCHAR 00C2
ENCODING 194
SWIDTH 648 0
DWIDTH 18 0
BBX 17 25 1 0
BITMAP
001C00
003600
006700
00C380
000000
000000
003800
003800
007C00
00FC00
00CC00
01CC00
018C00
038E00
030E00
070600
060600
0FFE00
0FFF00
180700
380300
300300
700300
600380
E00380
ENDCHAR
STARTCHAR 00C3
ENCODING 195
SWIDTH 648 0
DWIDTH 18 0
BBX 17 25 1 0
BITMAP
007980
00FF00
008600
000000
000000
000000
003800
003800
007C00
00FC00
00CC00
01CC00
018C00
038E00
030E00
070600
060600
0FFE00
0FFF00
180700
380300
300300
700300
600380
E00380
ENDCHAR
STARTCHAR 00C4
ENCODING 196
SWIDTH 648 0
DWIDTH 18 0
BBX 17 25 1 0
BITMAP
006380
00E380
004300
000000
000000
000000
003800
003800
007C00
00FC00
00CC00
01CC00
018C00
038E00
030E00
070600
060600
0FFE00
0FFF00
180700
380300
300300
700300
600380
E00380
ENDCHAR
STARTCHAR 00C5
ENCODING 197
SWIDTH 648 0
DWIDTH 18 0
BBX 17 27 1 0
BITMAP
000C00
001E00
002200
002600
001C00
000000
000000
000000
003800
003800
007C00
00FC00
00CC00
01CC00
018C00
038E00
030E00
070600
060600
0FFE00
0FFF00
180700
380300
300300
700300
600380
E00380
ENDCHAR
STARTCHAR 00C6
ENCODING 198
SWIDTH 936 0
DWIDTH 26 0
BBX 27 19 1 0
BITMAP
0007FFE0
000FFFE0
001D8000
003B8000
003B8000
00738000
00E30000
00C30000
01C3FF00
0387FF00
03070000
07FF0000
0FFE0000
1C060000
18060000
380E0000
700E0000
600FFF00
E00FFF00
ENDCHAR
STARTCHAR 00C7
ENCODING 199
SWIDTH 684 0
DWIDTH 19 0
BBX 18 27 3 -7
BITMAP
00F800
03FE00
0F8F00
1C0380
380180
3801C0
7001C0
600000
E00000
E00000
E00000
E00000
E00000
E00000
E00300
E00700
700E00
783C00
3FF800
0FE000
030000
030000
03C000
004000
004000
07C000
070000
ENDCHAR
STARTCHAR 00C8
ENCODING 200
SWIDTH 540 0
DWIDTH 15 0
BBX 15 26 2 0
BITMAP
0180
0180
00C0
00C0
0060
0000
0000
1FFE
1FFE
1800
1800
1800
3800
3800
3000
3FF8
3FF8
3000
7000
7000
6000
6000
6000
E000
FFF0
FFF0
ENDCHAR
STARTCHAR 00C9
ENCODING 201
SWIDTH 540 0
DWIDTH 15 0
BBX 15 26 2 0
BITMAP
000C
0018
0030
0030
0060
0000
0000
1FFE
1FFE
1800
1800
1800
3800
3800
3000
3FF8
3FF8
3000
7000
7000
6000
6000
6000
E000
FFF0
FFF0
ENDCHAR
STARTCHAR 00CA
ENCODING 202
SWIDTH 540 0
DWIDTH 15 0
BBX 15 25 2 0
BITMAP
00F0
01F8
0398
070C
0000
0000
1FFE
1FFE
1800
1800
1800
3800
3800
3000
3FF8
3FF8
3000
7000
7000
6000
6000
6000
E000
FFF0
FFF0
ENDCHAR
STARTCHAR 00CB
ENCODING 203
SWIDTH 540 0
DWIDTH 15 0
BBX 15 25 2 0
BITMAP
038C
039C
030C
0000
0000
0000
1FFE
1FFE
1800
1800
1800
3800
3800
3000
3FF8
3FF8
3000
7000
7000
6000
6000
6000
E000
FFF0
FFF0
ENDCHAR
STARTCHAR 00CC
ENCODING 204
SWIDTH 216 0
DWIDTH 6 0
BBX 6 26 2 0
BITMAP
30
38
18
1C
0C
00
00
1C
1C
18
18
18
38
38
38
30
30
30
70
70
70
60
60
60
E0
E0
ENDCHAR
STARTCHAR 00CD
ENCODING 205
SWIDTH 216 0
DWIDTH 6 0
BBX 10 26 2 0
BITMAP
01C0
0380
0300
0600
0C00
0000
0000
1C00
1C00
1800
1800
1800
3800
3800
3800
3000
3000
3000
7000
7000
7000
6000
6000
6000
E000
E000
ENDCHAR
STARTCHAR 00CE
ENCODING 206
SWIDTH 216 0
DWIDTH 6 0
BBX 10 25 2 0
BITMAP
0E00
1B00
3380
61C0
0000
0000
1C00
1C00
1800
1800
1800
3800
3800
3800
3000
3000
3000
7000
7000
7000
6000
6000
6000
E000
E000
ENDCHAR
STARTCHAR 00CF
ENCODING 207
SWIDTH 216 0
DWIDTH 6 0
BBX 10 25 2 0
BITMAP
31C0
71C0
2180
0000
0000
0000
1C00
1C00
1800
1800
1800
3800
3800
3800
3000
3000
3000
7000
7000
7000
6000
6000
6000
E000
E000
ENDCHAR
STARTCHAR 00D0
ENCODING 208
SWIDTH 684 0
DWIDTH 19 0
BBX 17 19 3 0
BITMAP
1FFC00
1FFE00
180700
380380
380380
300180
300180
300180
FF0180
FF0180
700180
600380
600300
600700
600E00
E01C00
E0F800
FFF000
FFC000
ENDCHAR
STARTCHAR 00D1
ENCODING 209
SWIDTH 684 0
DWIDTH 19 0
BBX 19 25 2 0
BITMAP
007100
00FF00
018400
000000
000000
000000
1E00E0
1E00E0
1F00C0
1F00C0
1B80C0
3B80C0
39C1C0
31C1C0
30E180
30E180
307180
707180
703380
603B80
601F00
601F00
E00F00
E00F00
E00700
ENDCHAR
STARTCHAR 00D2
ENCODING 210
SWIDTH 720 0
DWIDTH 20 0
BBX 18 26 3 0
BITMAP
00C000
00E000
006000
006000
003000
000000
00F800
03FE00
0F9F00
1E0380
380380
3001C0
7001C0
6001C0
E001C0
E001C0
E001C0
C00180
C00380
E00380
E00700
E00700
700E00
783C00
3FF800
0FE000
ENDCHAR
STARTCHAR 00D3
ENCODING 211
SWIDTH 720 0
DWIDTH 20 0
BBX 18 26 3 0
BITMAP
000700
000E00
001C00
001800
003000
000000
00F800
03FE00
0F9F00
1E0380
380380
3001C0
7001C0
6001C0
E001C0
E001C0
E001C0
C00180
C00380
E00380
E00700
E00700
700E00
783C00
3FF800
0FE000
ENDCHAR
STARTCHAR 00D4
ENCODING 212
SWIDTH 720 0
DWIDTH 20 0
BBX 18 25 3 0
BITMAP
003800
006C00
01CE00
038600
000000
00F800
03FE00
0F9F00
1E0380
380380
3001C0
7001C0
6001C0
E001C0
E001C0
E001C0
C00180
C00380
E00380
E00700
E00700
700E00
783C00
3FF800
0FE000
ENDCHAR
STARTCHAR 00D5
ENCODING 213
SWIDTH 720 0
DWIDTH 20 0
BBX 18 25 3 0
BITMAP
00F300
01FE00
010800
000000
000000
00F800
03FE00
0F9F00
1E0380
380380
3001C0
7001C0
6001C0
E001C0
E001C0
E001C0
C00180
C00380
E00380
E00700
E00700
700E00
783C00
3FF800
0FE000
ENDCHAR
STARTCHAR 00D6
ENCODING 214
SWIDTH 720 0
DWIDTH 20 0
BBX 18 25 3 0
BITMAP
01C700
01CF00
018600
000000
000000
00F800
03FE00
0F9F00
1E0380
380380
3001C0
7001C0
6001C0
E001C0
E001C0
E001C0
C00180
C00380
E00380
E00700
E00700
700E00
783C00
3FF800
0FE000
ENDCHAR
STARTCHAR 00D7
ENCODING 215
SWIDTH 540 0
DWIDTH 15 0
BBX 10 9 4 4
BITMAP
30C0
71C0
3B80
1F00
1E00
3F00
7700
E380
4100
ENDCHAR
STARTCHAR 00D8
ENCODING 216
SWIDTH 720 0
DWIDTH 20 0
BBX 20 22 2 -1
BITMAP
000030
007C60
01FFC0
07C780
0F03C0
1C03C0
1C06E0
380CE0
3018E0
7038E0
7070E0
7060E0
70C0C0
7180C0
7301C0
770180
760380
3C0700
3C1E00
3FFC00
77F000
E00000
ENDCHAR
STARTCHAR 00D9
ENCODING 217
SWIDTH 684 0
DWIDTH 19 0
BBX 17 26 3 0
BITMAP
01C000
00C000
00C000
006000
006000
000000
000000
300180
300180
300180
700380
700380
600380
600300
600300
600300
E00700
E00700
C00600
C00600
E00E00
E00C00
E01C00
787800
3FF000
1FC000
ENDCHAR
STARTCHAR 00DA
ENCODING 218
SWIDTH 684 0
DWIDTH 19 0
BBX 17 26 3 0
BITMAP
000E00
000C00
001800
003000
006000
000000
000000
300180
300180
300180
700380
700380
600380
600300
600300
600300
E00700
E00700
C00600
C00600
E00E00
E00C00
E01C00
787800
3FF000
1FC000
ENDCHAR
STARTCHAR 00DB
ENCODING 219
SWIDTH 684 0
DWIDTH 19 0
BBX 17 25 3 0
BITMAP
007800
00D800
018C00
030E00
000000
000000
300180
300180
300180
700380
700380
600380
600300
600300
600300
E00700
E00700
C00600
C00600
E00E00
E00C00
E01C00
787800
3FF000
1FC000
ENDCHAR
STARTCHAR 00DC
ENCODING 220
SWIDTH 684 0
DWIDTH 19 0
BBX 17 25 3 0
BITMAP
018E00
038E00
018C00
000000
000000
000000
300180
300180
300180
700380
700380
600380
600300
600300
600300
E00700
E00700
C00600
C00600
E00E00
E00C00
E01C00
787800
3FF000
1FC000
ENDCHAR
STARTCHAR 00DD
ENCODING 221
SWIDTH 612 0
DWIDTH 17 0
BBX 14 26 5 0
BITMAP
0070
00E0
00C0
0180
0300
0000
0000
C01C
C038
E030
6070
60E0
70C0
31C0
3380
3B00
1F00
1E00
1C00
1C00
1C00
1800
1800
1800
1800
3800
ENDCHAR
STARTCHAR 00DE
ENCODING 222
SWIDTH 576 0
DWIDTH 16 0
BBX 15 19 2 0
BITMAP
1C00
1800
1800
1FF8
1FFC
381E
380E
3006
3006
3006
300E
700C
701C
60F8
7FF0
7F00
E000
E000
E000
ENDCHAR
STARTCHAR 00DF
ENCODING 223
SWIDTH 540 0
DWIDTH 15 0
BBX 14 20 2 0
BITMAP
01F0
07F8
0E1C
1C0C
180C
180C
380C
3818
3078
33E0
33F0
7038
7018
7018
6018
6018
6038
E070
E7E0
E780
ENDCHAR
STARTCHAR 00E0
ENCODING 224
SWIDTH 576 0
DWIDTH 16 0
BBX 15 22 2 0
BITMAP
0300
0380
0180
0180
00C0
0000
0000
07C6
0FE6
1C36
381E
700E
600C
600C
E00C
E01C
E01C
E01C
E038
7058
7F98
3F18
ENDCHAR
STARTCHAR 00E1
ENCODING 225
SWIDTH 576 0
DWIDTH 16 0
BBX 15 22 2 0
BITMAP
000C
0018
0038
0030
0060
0000
0000
07C6
0FE6
1C36
381E
700E
600C
600C
E00C
E01C
E01C
E01C
E038
7058
7F98
3F18
ENDCHAR
STARTCHAR 00E2
ENCODING 226
SWIDTH 576 0
DWIDTH 16 0
BBX 15 21 2 0
BITMAP
0060
00F0
01B0
0718
0E1C
0000
07C6
0FE6
1C36
381E
700E
600C
600C
E00C
E01C
E01C
E01C
E038
7058
7F98
3F18
ENDCHAR
STARTCHAR 00E3
ENCODING 227
SWIDTH 576 0
DWIDTH 16 0
BBX 15 20 2 0
BITMAP
03CC
06F8
0000
0000
0000
07C6
0FE6
1C36
381E
700E
600C
600C
E00C
E01C
E01C
E01C
E038
7058
7F98
3F18
ENDCHAR
STARTCHAR 00E4
ENCODING 228
SWIDTH 576 0
DWIDTH 16 0
BBX 15 20 2 0
BITMAP
071C
071C
0208
0000
0000
07C6
0FE6
1C36
381E
700E
600C
600C
E00C
E01C
E01C
E01C
E038
7058
7F98
3F18
ENDCHAR
STARTCHAR 00E5
ENCODING 229
SWIDTH 576 0
DWIDTH 16 0
BBX 15 22 2 0
BITMAP
0060
00B0
0110
01B0
00E0
0000
0000
07C6
0FE6
1C36
381E
700E
600C
600C
E00C
E01C
E01C
E01C
E038
7058
7F98
3F18
ENDCHAR
STARTCHAR 00E6
ENCODING 230
SWIDTH 936 0
DWIDTH 26 0
BBX 24 15 2 0
BITMAP
03C0F8
0FF3FE
1C370E
301E07
301C03
001C03
001803
1FFFFF
783800
E03800
E03800
C0780E
E0DC1C
7F8FF8
3F07E0
ENDCHAR
STARTCHAR 00E7
ENCODING 231
SWIDTH 540 0
DWIDTH 15 0
BBX 14 22 2 -7
BITMAP
03E0
0FF8
1C38
381C
700C
600C
6000
E000
E000
E000
E018
6030
7070
3FE0
1F80
0600
0400
0F80
0080
0180
0F00
0E00
ENDCHAR
STARTCHAR 00E8
ENCODING 232
SWIDTH 540 0
DWIDTH 15 0
BBX 14 22 2 0
BITMAP
0300
0380
0180
0180
00C0
0000
0000
07F0
0FF8
1C1C
301C
701C
601C
FFF8
FFF0
E000
E000
E018
6038
7070
3FE0
1F80
ENDCHAR
STARTCHAR 00E9
ENCODING 233
SWIDTH 540 0
DWIDTH 15 0
BBX 14 22 2 0
BITMAP
000C
0018
0038
0030
0060
0000
0000
07F0
0FF8
1C1C
301C
701C
601C
FFF8
FFF0
E000
E000
E018
6038
7070
3FE0
1F80
ENDCHAR
STARTCHAR 00EA
ENCODING 234
SWIDTH 540 0
DWIDTH 15 0
BBX 14 21 2 0
BITMAP
0060
00F0
01B0
0318
0E1C
0000
07F0
0FF8
1C1C
301C
701C
601C
FFF8
FFF0
E000
E000
E018
6038
7070
3FE0
1F80
ENDCHAR
STARTCHAR 00EB
ENCODING 235
SWIDTH 540 0
DWIDTH 15 0
BBX 14 20 2 0
BITMAP
071C
071C
0208
0000
0000
07F0
0FF8
1C1C
301C
701C
601C
FFF8
FFF0
E000
E000
E018
6038
7070
3FE0
1F80
ENDCHAR
STARTCHAR 00EC
ENCODING 236
SWIDTH 216 0
DWIDTH 6 0
BBX 5 22 2 0
BITMAP
60
70
30
30
18
00
00
18
18
38
38
30
30
30
30
70
70
60
60
60
60
E0
ENDCHAR
STARTCHAR 00ED
ENCODING 237
SWIDTH 216 0
DWIDTH 6 0
BBX 9 22 2 0
BITMAP
0180
0380
0700
0600
0C00
0000
0000
1800
1800
3800
3800
3000
3000
3000
3000
7000
7000
6000
6000
6000
6000
E000
ENDCHAR
STARTCHAR 00EE
ENCODING 238
SWIDTH 216 0
DWIDTH 6 0
BBX 9 21 2 0
BITMAP
0C00
1E00
3600
6300
C180
0000
1800
1800
3800
3800
3000
3000
3000
3000
7000
7000
6000
6000
6000
6000
E000
ENDCHAR
STARTCHAR 00EF
ENCODING 239
SWIDTH 216 0
DWIDTH 6 0
BBX 9 20 2 0
BITMAP
7380
E380
4100
0000
0000
1800
1800
3800
3800
3000
3000
3000
3000
7000
7000
6000
6000
6000
6000
E000
ENDCHAR
STARTCHAR 00F0
ENCODING 240
SWIDTH 612 0
DWIDTH 17 0
BBX 16 22 2 0
BITMAP
00E1
00F7
003C
007C
00CE
000E
0006
07C6
0FE6
1C36
381E
700E
600E
600C
E00C
E01C
E01C
E018
6038
7070
3FE0
1F80
ENDCHAR
STARTCHAR 00F1
ENCODING 241
SWIDTH 612 0
DWIDTH 17 0
BBX 15 20 2 0
BITMAP
03EC
0678
0000
0000
0000
18F8
3BFC
3E1C
380E
380E
300E
300E
700C
700C
600C
601C
601C
E01C
E018
E018
ENDCHAR
STARTCHAR 00F2
ENCODING 242
SWIDTH 576 0
DWIDTH 16 0
BBX 14 22 2 0
BITMAP
0700
0300
0380
0180
0180
0000
0000
03E0
0FF8
1C38
381C
700C
600C
600C
E00C
E01C
E01C
E018
6038
7070
3FE0
1F80
ENDCHAR
STARTCHAR 00F3
ENCODING 243
SWIDTH 576 0
DWIDTH 16 0
BBX 14 22 2 0
BITMAP
001C
0018
0030
0060
0060
0080
0000
03E0
0FF8
1C38
381C
700C
600C
600C
E00C
E01C
E01C
E018
6038
7070
3FE0
1F80
ENDCHAR
STARTCHAR 00F4
ENCODING 244
SWIDTH 576 0
DWIDTH 16 0
BBX 14 21 2 0
BITMAP
00C0
01E0
03B0
0738
0C18
0000
03E0
0FF8
1C38
381C
700C
600C
600C
E00C
E01C
E01C
E018
6038
7070
3FE0
1F80
ENDCHAR
STARTCHAR 00F5
ENCODING 245
SWIDTH 576 0
DWIDTH 16 0
BBX 14 20 2 0
BITMAP
03CC
06F8
0000
0000
0000
03E0
0FF8
1C38
381C
700C
600C
600C
E00C
E01C
E01C
E018
6038
7070
3FE0
1F80
ENDCHAR
STARTCHAR 00F6
ENCODING 246
SWIDTH 576 0
DWIDTH 16 0
BBX 14 20 2 0
BITMAP
0718
0738
0210
0000
0000
03E0
0FF8
1C38
381C
700C
600C
600C
E00C
E01C
E01C
E018
6038
7070
3FE0
1F80
ENDCHAR
STARTCHAR 00F7
ENCODING 247
SWIDTH 576 0
DWIDTH 16 0
BBX 11 13 4 2
BITMAP
1800
3800
1800
0000
0000
FFE0
FFE0
0000
0000
0000
1C00
1C00
1800
ENDCHAR
STARTCHAR 00F8
ENCODING 248
SWIDTH 576 0
DWIDTH 16 0
BBX 14 17 2 -1
BITMAP
000C
03EC
0FF8
1C38
387C
706C
60CC
618C
E10C
E31C
E61C
EC18
6C38
78F0
3FE0
3F80
6000
ENDCHAR
STARTCHAR 00F9
ENCODING 249
SWIDTH 576 0
DWIDTH 16 0
BBX 14 22 3 0
BITMAP
0E00
0600
0700
0300
0300
0000
0000
700C
700C
701C
601C
601C
6018
E018
E018
E038
C038
C038
E070
F0B0
7FB0
3E70
ENDCHAR
STARTCHAR 00FA
ENCODING 250
SWIDTH 576 0
DWIDTH 16 0
BBX 14 22 3 0
BITMAP
0038
0030
0060
00C0
00C0
0100
0000
700C
700C
701C
601C
601C
6018
E018
E018
E038
C038
C038
E070
F0B0
7FB0
3E70
ENDCHAR
STARTCHAR 00FB
ENCODING 251
SWIDTH 576 0
DWIDTH 16 0
BBX 14 21 3 0
BITMAP
01C0
03C0
0760
0E70
1C30
0000
700C
700C
701C
601C
601C
6018
E018
E018
E038
C038
C038
E070
F0B0
7FB0
3E70
ENDCHAR
STARTCHAR 00FC
ENCODING 252
SWIDTH 576 0
DWIDTH 16 0
BBX 14 20 3 0
BITMAP
0E38
0E70
0420
0000
0000
700C
700C
701C
601C
601C
6018
E018
E018
E038
C038
C038
E070
F0B0
7FB0
3E70
ENDCHAR
STARTCHAR 00FD
ENCODING 253
SWIDTH 468 0
DWIDTH 13 0
BBX 16 28 0 -6
BITMAP
000E
000C
0018
0030
0060
0000
0000
1803
1807
1C06
1C0C
0C1C
0C18
0C38
0E30
0E70
0660
06C0
06C0
0780
0380
0300
0600
0E00
0C00
3C00
F800
E000
ENDCHAR
STARTCHAR 00FE
ENCODING 254
SWIDTH 612 0
DWIDTH 17 0
BBX 16 27 1 -6
BITMAP
0600
0E00
0E00
0C00
0C00
0C00
0C7C
1DFE
1F0F
1E07
1C03
1803
3803
3803
3807
3807
3806
380E
7C1C
77F8
73F0
6000
6000
6000
E000
E000
E000
ENDCHAR
STARTCHAR 00FF
ENCODING 255
SWIDTH 468 0
DWIDTH 13 0
BBX 16 26 0 -6
BITMAP
038C
039C
0308
0000
0000
1803
1807
1C06
1C0C
0C1C
0C18
0C38
0E30
0E70
0660
06C0
06C0
0780
0380
0300
0600
0E00
0C00
3C00
F800
E000
ENDCHAR
STARTCHAR 0100
ENCODING 256
SWIDTH 648 0
DWIDTH 18 0
BBX 17 23 1 0
BITMAP
00FF00
000000
000000
000000
003800
003800
007C00
00FC00
00CC00
01CC00
018C00
038E00
030E00
070600
060600
0FFE00
0FFF00
180700
380300
300300
700300
600380
E00380
ENDCHAR
STARTCHAR 0101
ENCODING 257
SWIDTH 576 0
DWIDTH 16 0
BBX 15 19 2 0
BITMAP
07FC
07F8
0000
0000
07C6
0FE6
1C36
381E
700E
600C
600C
E00C
E01C
E01C
E01C
E038
7058
7F98
3F18
ENDCHAR
STARTCHAR 0102
ENCODING 258
SWIDTH 648 0
DWIDTH 18 0
BBX 17 25 1 0
BITMAP
00C180
00E300
007E00
000000
000000
000000
003800
003800
007C00
00FC00
00CC00
01CC00
018C00
038E00
030E00
070600
060600
0FFE00
0FFF00
180700
380300
300300
700300
600380
E00380
ENDCHAR
STARTCHAR 0103
ENCODING 259
SWIDTH 576 0
DWIDTH 16 0
BBX 15 20 2 0
BITMAP
060C
03B8
01F0
0000
0000
07C6
0FE6
1C36
381E
700E
600C
600C
E00C
E01C
E01C
E01C
E038
7058
7F98
3F18
ENDCHAR
STARTCHAR 0104
ENCODING 260
SWIDTH 648 0
DWIDTH 18 0
BBX 17 24 1 -5
BITMAP
003800
003800
007C00
00FC00
00CC00
01CC00
018C00
038E00
030E00
070600
060600
0FFE00
0FFF00
180700
380300
300300
700300
600380
E00380
000300
000600
000600
000780
000100
ENDCHAR
STARTCHAR 0105
ENCODING 261
SWIDTH 576 0
DWIDTH 16 0
BBX 15 20 2 -5
BITMAP
07C6
0FE6
1C36
381E
700E
600C
600C
E00C
E01C
E01C
E01C
E038
7058
7F98
3F18
0030
0060
0060
0078
0010
ENDCHAR
STARTCHAR 0106
ENCODING 262
SWIDTH 684 0
DWIDTH 19 0
BBX 18 26 3 0
BITMAP
000600
000C00
001800
001800
003000
000000
00F800
03FE00
0F8F00
1C0380
380180
3801C0
7001C0
600000
E00000
E00000
E00000
E00000
E00000
E00000
E00300
E00700
700E00
783C00
3FF800
0FE000
ENDCHAR
STARTCHAR 0107
ENCODING 263
SWIDTH 540 0
DWIDTH 15 0
BBX 14 22 2 0
BITMAP
001C
0018
0030
0060
0060
0080
0000
03E0
0FF8
1C38
381C
700C
600C
6000
E000
E000
E000
E018
6030
7070
3FE0
1F80
ENDCHAR
STARTCHAR 010A
ENCODING 266
SWIDTH 684 0
DWIDTH 19 0
BBX 18 25 3 0
BITMAP
003000
007000
003000
000000
000000
00F800
03FE00
0F8F00
1C0380
380180
3801C0
7001C0
600000
E00000
E00000
E00000
E00000
E00000
E00000
E00300
E00700
700E00
783C00
3FF800
0FE000
ENDCHAR
STARTCHAR 010B
ENCODING 267
SWIDTH 540 0
DWIDTH 15 0
BBX 14 20 2 0
BITMAP
00E0
00E0
00C0
0000
0000
03E0
0FF8
1C38
381C
700C
600C
6000
E000
E000
E000
E018
6030
7070
3FE0
1F80
ENDCHAR
STARTCHAR 010C
ENCODING 268
SWIDTH 684 0
DWIDTH 19 0
BBX 18 25 3 0
BITMAP
01C600
00CC00
007800
007000
000000
00F800
03FE00
0F8F00
1C0380
380180
3801C0
7001C0
600000
E00000
E00000
E00000
E00000
E00000
E00000
E00300
E00700
700E00
783C00
3FF800
0FE000
ENDCHAR
STARTCHAR 010D
ENCODING 269
SWIDTH 540 0
DWIDTH 15 0
BBX 14 21 2 0
BITMAP
060C
0318
03B0
01E0
00C0
0000
03E0
0FF8
1C38
381C
700C
600C
6000
E000
E000
E000
E018
6030
7070
3FE0
1F80
ENDCHAR
STARTCHAR 010E
ENCODING 270
SWIDTH 684 0
DWIDTH 19 0
BBX 18 25 2 0
BITMAP
01C700
00EC00
007800
003000
000000
000000
1FFE00
1FFF00
180780
180380
180180
3801C0
3801C0
3001C0
3001C0
3001C0
300180
700380
700380
600700
600700
601E00
E07C00
FFF000
FFC000
ENDCHAR
STARTCHAR 010F
ENCODING 271
SWIDTH 720 0
DWIDTH 20 0
BBX 21 22 2 0
BITMAP
000010
000338
000338
000318
000718
000710
000720
07C640
0FE600
1C3600
381E00
700E00
600C00
600C00
E00C00
E01C00
E01C00
E01C00
E03800
705800
7FD800
3F1800
ENDCHAR
STARTCHAR 0110
ENCODING 272
SWIDTH 684 0
DWIDTH 19 0
BBX 17 19 3 0
BITMAP
1FFC00
1FFE00
180700
380380
380380
300180
300180
300180
FF0180
FF0180
700180
600380
600300
600700
600E00
E01C00
E0F800
FFF000
FFC000
ENDCHAR
STARTCHAR 0111
ENCODING 273
SWIDTH 648 0
DWIDTH 18 0
BBX 18 21 2 0
BITMAP
000300
000300
003FC0
007FC0
000700
000700
07C600
0FE600
1C3600
381E00
700E00
600E00
600C00
E00C00
E01C00
E01C00
E01C00
E03800
705800
7FD800
3F1800
ENDCHAR
STARTCHAR 0112
ENCODING 274
SWIDTH 540 0
DWIDTH 15 0
BBX 15 23 2 0
BITMAP
03FC
0000
0000
0000
1FFE
1FFE
1800
1800
1800
3800
3800
3000
3FF8
3FF8
3000
7000
7000
6000
6000
6000
E000
FFF0
FFF0
ENDCHAR
STARTCHAR 0113
ENCODING 275
SWIDTH 540 0
DWIDTH 15 0
BBX 14 19 2 0
BITMAP
07FC
07F8
0000
0000
07F0
0FF8
1C1C
301C
701C
601C
FFF8
FFF0
E000
E000
E018
6038
7070
3FE0
1F80
ENDCHAR
STARTCHAR 0116
ENCODING 278
SWIDTH 540 0
DWIDTH 15 0
BBX 15 25 2 0
BITMAP
0070
00F0
0060
0000
0000
0000
1FFE
1FFE
1800
1800
1800
3800
3800
3000
3FF8
3FF8
3000
7000
7000
6000
6000
6000
E000
FFF0
FFF0
ENDCHAR
STARTCHAR 0117
ENCODING 279
SWIDTH 540 0
DWIDTH 15 0
BBX 14 20 2 0
BITMAP
00E0
00E0
0040
0000
0000
07F0
0FF8
1C1C
301C
701C
601C
FFF8
FFF0
E000
E000
E018
6038
7070
3FE0
1F80
ENDCHAR
STARTCHAR 0118
ENCODING 280
SWIDTH 540 0
DWIDTH 15 0
BBX 15 23 2 -5
BITMAP
1FFE
1FFE
1800
1800
1800
3800
3800
3000
3FF8
3FF8
3000
7000
7000
6000
6000
6000
E000
FFF0
FFF0
0060
0040
00C0
0070
ENDCHAR
STARTCHAR 0119
ENCODING 281
SWIDTH 540 0
DWIDTH 15 0
BBX 14 20 2 -5
BITMAP
07F0
0FF8
1C1C
301C
701C
601C
FFF8
FFF0
E000
E000
E018
6030
7070
3FE0
1F80
0300
0600
0400
0780
0300
ENDCHAR
STARTCHAR 011A
ENCODING 282
SWIDTH 540 0
DWIDTH 15 0
BBX 15 25 2 0
BITMAP
038C
0198
00F0
00E0
0000
0000
1FFE
1FFE
1800
1800
1800
3800
3800
3000
3FF8
3FF8
3000
7000
7000
6000
6000
6000
E000
FFF0
FFF0
ENDCHAR
STARTCHAR 011B
ENCODING 283
SWIDTH 540 0
DWIDTH 15 0
BBX 14 21 2 0
BITMAP
060C
0318
01B0
01E0
00C0
0000
07F0
0FF8
1C1C
301C
701C
601C
FFF8
FFF0
E000
E000
E018
6038
7070
3FE0
1F80
ENDCHAR
STARTCHAR 011E
ENCODING 286
SWIDTH 684 0
DWIDTH 19 0
BBX 17 25 3 0
BITMAP
018300
01C600
00FC00
000000
000000
00F800
03FE00
0F9F00
1C0380
380380
300180
700000
600000
E00000
E00000
E07F80
C07F80
C00300
C00300
E00700
E00700
700F00
783B00
3FF200
0FE600
ENDCHAR
STARTCHAR 011F
ENCODING 287
SWIDTH 576 0
DWIDTH 16 0
BBX 15 26 2 -6
BITMAP
060C
07B8
01F0
0000
0000
07C6
0FE6
1C36
381E
700E
600C
600C
E00C
E01C
E01C
E03C
7078
78D8
3F98
1E38
0038
0030
0070
11E0
1FC0
1F00
ENDCHAR
STARTCHAR 0120
ENCODING 288
SWIDTH 684 0
DWIDTH 19 0
BBX 17 25 3 0
BITMAP
003800
003800
003000
000000
000000
00F800
03FE00
0F9F00
1C0380
380380
300180
700000
600000
E00000
E00000
E07F80
C07F80
C00300
C00300
E00700
E00700
700F00
783B00
3FF200
0FE600
ENDCHAR
STARTCHAR 0121
ENCODING 289
SWIDTH 576 0
DWIDTH 16 0
BBX 15 26 2 -6
BITMAP
00E0
00E0
0040
0000
0000
07C6
0FE6
1C36
381E
700E
600C
600C
E00C
E01C
E01C
E03C
7078
78D8
3F98
1E38
0038
0030
0070
11E0
1FC0
1F00
ENDCHAR
STARTCHAR 0126
ENCODING 294
SWIDTH 684 0
DWIDTH 19 0
BBX 19 19 2 0
BITMAP
1C00C0
1C00C0
1C01C0
7FFFE0
7FFFE0
180180
380180
380180
3FFF80
3FFF80
300300
300300
700300
700700
600700
600700
600600
600600
E00600
ENDCHAR
STARTCHAR 0127
ENCODING 295
SWIDTH 576 0
DWIDTH 16 0
BBX 15 21 2 0
BITMAP
0C00
0C00
7FC0
7FC0
1C00
1800
18F8
1BFC
3E1E
3C0E
3806
3806
300E
300E
700C
700C
700C
600C
601C
601C
E018
ENDCHAR
STARTCHAR 0128
ENCODING 296
SWIDTH 216 0
DWIDTH 6 0
BBX 10 25 2 0
BITMAP
3CC0
7F80
4300
0000
0000
0000
1C00
1C00
1800
1800
1800
3800
3800
3800
3000
3000
3000
7000
7000
7000
6000
6000
6000
E000
E000
ENDCHAR
STARTCHAR 0129
ENCODING 297
SWIDTH 216 0
DWIDTH 6 0
BBX 9 20 2 0
BITMAP
7980
CF00
0000
0000
0000
1800
1800
3800
3800
3000
3000
3000
3000
7000
7000
6000
6000
6000
6000
E000
ENDCHAR
STARTCHAR 012A
ENCODING 298
SWIDTH 216 0
DWIDTH 6 0
BBX 9 23 2 0
BITMAP
7F80
0000
0000
0000
1C00
1C00
1800
1800
1800
3800
3800
3800
3000
3000
3000
7000
7000
7000
6000
6000
6000
E000
E000
ENDCHAR
STARTCHAR 012B
ENCODING 299
SWIDTH 216 0
DWIDTH 6 0
BBX 9 19 2 0
BITMAP
FF80
FF80
0000
0000
1800
1800
3800
3800
3000
3000
3000
3000
7000
7000
6000
6000
6000
6000
E000
ENDCHAR
STARTCHAR 012E
ENCODING 302
SWIDTH 216 0
DWIDTH 6 0
BBX 7 24 1 -5
BITMAP
0E
0E
0C
0C
0C
1C
1C
1C
18
18
18
38
38
38
30
30
30
70
70
60
C0
C0
F0
20
ENDCHAR
STARTCHAR 012F
ENCODING 303
SWIDTH 216 0
DWIDTH 6 0
BBX 7 25 1 -5
BITMAP
0E
0E
04
00
00
0C
0C
1C
1C
18
18
18
18
38
38
30
30
30
30
70
60
C0
C0
F0
20
ENDCHAR
STARTCHAR 0130
ENCODING 304
SWIDTH 216 0
DWIDTH 6 0
BBX 7 25 2 0
BITMAP
0E
0E
0C
00
00
00
1C
1C
18
18
18
38
38
38
30
30
30
70
70
70
60
60
60
E0
E0
ENDCHAR
STARTCHAR 0131
ENCODING 305
SWIDTH 216 0
DWIDTH 6 0
BBX 5 15 2 0
BITMAP
18
18
38
38
30
30
30
30
70
70
60
60
60
60
E0
ENDCHAR
STARTCHAR 0139
ENCODING 313
SWIDTH 504 0
DWIDTH 14 0
BBX 12 26 2 0
BITMAP
01C0
0380
0300
0600
0C00
0000
0000
1C00
1800
1800
1800
1800
3800
3800
3000
3000
3000
3000
7000
7000
6000
6000
6000
E000
FFF0
FFF0
ENDCHAR
STARTCHAR 013A
ENCODING 314
SWIDTH 288 0
DWIDTH 8 0
BBX 9 28 3 0
BITMAP
0180
0300
0700
0600
0C00
0000
0000
1800
3800
3800
3800
3000
3000
3000
7000
7000
7000
6000
6000
6000
E000
E000
E000
C000
C000
C000
F800
F800
ENDCHAR
STARTCHAR 013D
ENCODING 317
SWIDTH 504 0
DWIDTH 14 0
BBX 12 25 2 0
BITMAP
71C0
3B00
1E00
0C00
0000
0000
1C00
1800
1800
1800
1800
3800
3800
3000
3000
3000
3000
7000
7000
6000
6000
6000
E000
FFF0
FFF0
ENDCHAR
STARTCHAR 013E
ENCODING 318
SWIDTH 324 0
DWIDTH 9 0
BBX 7 22 3 0
BITMAP
0C
1E
3E
3C
3C
3C
38
30
70
70
70
60
60
60
E0
E0
E0
C0
C0
C0
F8
F8
ENDCHAR
STARTCHAR 0143
ENCODING 323
SWIDTH 684 0
DWIDTH 19 0
BBX 19 26 2 0
BITMAP
000300
000600
000C00
001800
001800
000000
000000
1E00E0
1E00E0
1F00C0
1F00C0
1B80C0
3B80C0
39C1C0
31C1C0
30E180
30E180
307180
707180
703380
603B80
601F00
601F00
E00F00
E00F00
E00700
ENDCHAR
STARTCHAR 0144
ENCODING 324
SWIDTH 612 0
DWIDTH 17 0
BBX 15 22 2 0
BITMAP
000E
001C
0018
0030
0060
0000
0000
18F8
3BFC
3E1C
380E
380E
300E
300E
700C
700C
600C
601C
601C
E01C
E018
E018
ENDCHAR
STARTCHAR 0147
ENCODING 327
SWIDTH 684 0
DWIDTH 19 0
BBX 19 25 2 0
BITMAP
00E300
006E00
003C00
003800
000000
000000
1E00E0
1E00E0
1F00C0
1F00C0
1B80C0
3B80C0
39C1C0
31C1C0
30E180
30E180
307180
707180
703380
603B80
601F00
601F00
E00F00
E00F00
E00700
ENDCHAR
STARTCHAR 0148
ENCODING 328
SWIDTH 612 0
DWIDTH 17 0
BBX 15 21 2 0
BITMAP
070E
031C
01B8
00E0
00C0
0000
18F8
3BFC
3E1C
380E
380E
300E
300E
700C
700C
600C
601C
601C
E01C
E018
E018
ENDCHAR
STARTCHAR 014C
ENCODING 332
SWIDTH 720 0
DWIDTH 20 0
BBX 18 23 3 0
BITMAP
01FE00
000000
000000
00F800
03FE00
0F9F00
1E0380
380380
3001C0
7001C0
6001C0
E001C0
E001C0
E001C0
C00180
C00380
E00380
E00700
E00700
700E00
783C00
3FF800
0FE000
ENDCHAR
STARTCHAR 014D
ENCODING 333
SWIDTH 576 0
DWIDTH 16 0
BBX 14 19 2 0
BITMAP
07F8
07F8
0000
0000
03E0
0FF8
1C38
381C
700C
600C
600C
E00C
E01C
E01C
E018
6038
7070
3FE0
1F80
ENDCHAR
STARTCHAR 0152
ENCODING 338
SWIDTH 936 0
DWIDTH 26 0
BBX 25 19 3 0
BITMAP
03FFFF80
0FFFFF80
1E060000
38060000
300E0000
700E0000
600E0000
E00C0000
E00FFE00
C00FFC00
C01C0000
C01C0000
C01C0000
E0180000
E0180000
F0180000
7C380000
3FFFFC00
0FFFFC00
ENDCHAR
STARTCHAR 0153
ENCODING 339
SWIDTH 972 0
DWIDTH 27 0
BBX 24 15 3 0
BITMAP
07C0FC
1FF1FE
387307
703E03
601C03
E01C03
C01C03
C01FFF
C01800
C03800
C03800
C07C06
E0EE1C
7FC7F8
3F03F0
ENDCHAR
STARTCHAR 0154
ENCODING 340
SWIDTH 576 0
DWIDTH 16 0
BBX 16 26 2 0
BITMAP
000C
0018
0030
0070
0060
0000
0000
1FFC
1FFE
180E
1807
1807
3807
3806
300E
301C
3FF8
3FF0
71C0
70C0
60E0
6060
6070
E030
E038
E018
ENDCHAR
STARTCHAR 0155
ENCODING 341
SWIDTH 324 0
DWIDTH 9 0
BBX 11 22 2 0
BITMAP
00E0
00C0
0180
0300
0300
0400
0000
39C0
3BC0
37C0
3800
3000
3000
7000
7000
6000
6000
6000
6000
E000
E000
C000
ENDCHAR
STARTCHAR 0158
ENCODING 344
SWIDTH 576 0
DWIDTH 16 0
BBX 16 25 2 0
BITMAP
038C
01B8
00F0
00E0
0000
0000
1FFC
1FFE
180E
1807
1807
3807
3806
300E
301C
3FF8
3FF0
71C0
70C0
60E0
6060
6070
E030
E038
E018
ENDCHAR
STARTCHAR 0159
ENCODING 345
SWIDTH 324 0
DWIDTH 9 0
BBX 11 21 2 0
BITMAP
3060
18C0
1D80
0F00
0600
0000
39C0
3BC0
37C0
3800
3000
3000
7000
7000
6000
6000
6000
6000
E000
E000
C000
ENDCHAR
STARTCHAR 015A
ENCODING 346
SWIDTH 576 0
DWIDTH 16 0
BBX 16 26 2 0
BITMAP
000E
000C
0018
0030
0030
0000
01F0
07FC
0F1E
1C0E
1806
3807
3800
3800
1E00
0FE0
07F8
003C
001C
000C
E00C
E01C
701C
7878
3FF0
1FC0
ENDCHAR
STARTCHAR 015B
ENCODING 347
SWIDTH 468 0
DWIDTH 13 0
BBX 13 22 2 0
BITMAP
0038
0030
0060
00C0
00C0
0000
0000
07C0
1FE0
3870
3030
7030
7000
3E00
1FC0
03E0
0060
C060
E060
E0E0
7FC0
3F00
ENDCHAR
STARTCHAR 015E
ENCODING 350
SWIDTH 576 0
DWIDTH 16 0
BBX 16 27 2 -7
BITMAP
01F0
07FC
0F1E
1C0E
1806
3807
3800
3800
1E00
0FE0
07F8
003C
001C
000C
E00C
E01C
701C
7878
3FF0
1FC0
0600
0400
0F80
0080
0080
0F80
0E00
ENDCHAR
STARTCHAR 015F
ENCODING 351
SWIDTH 468 0
DWIDTH 13 0
BBX 12 22 2 -7
BITMAP
07C0
1FE0
3870
3030
7030
7000
3E00
1FC0
03E0
0060
C060
E060
E0E0
7FC0
3F00
0C00
0800
1F00
0100
0100
1F00
1C00
ENDCHAR
STARTCHAR 0160
ENCODING 352
SWIDTH 576 0
DWIDTH 16 0
BBX 16 25 2 0
BITMAP
018E
00DC
00F8
0070
0000
01F0
07FC
0F1E
1C0E
1806
3807
3800
3800
1E00
0FE0
07F8
003C
001C
000C
E00C
E01C
701C
7878
3FF0
1FC0
ENDCHAR
STARTCHAR 0161
ENCODING 353
SWIDTH 468 0
DWIDTH 13 0
BBX 13 21 2 0
BITMAP
0C18
0630
07E0
03C0
0000
0000
07C0
1FE0
3870
3030
7030
7000
3E00
1FC0
03E0
0060
C060
E060
E0E0
7FC0
3F00
ENDCHAR
STARTCHAR 0162
ENCODING 354
SWIDTH 576 0
DWIDTH 16 0
BBX 14 26 4 -7
BITMAP
FFFC
FFFC
0300
0300
0700
0700
0700
0600
0600
0600
0E00
0E00
0C00
0C00
0C00
0C00
1C00
1C00
1800
1000
1000
3E00
0600
0600
3C00
3800
ENDCHAR
STARTCHAR 0163
ENCODING 355
SWIDTH 396 0
DWIDTH 11 0
BBX 9 26 3 -7
BITMAP
0C00
0C00
1C00
1C00
FF80
FF80
1800
1800
3800
3800
3000
3000
3000
3000
7000
7000
7000
7E00
3E00
3000
2000
3C00
0400
0400
7C00
7000
ENDCHAR
STARTCHAR 0164
ENCODING 356
SWIDTH 576 0
DWIDTH 16 0
BBX 14 25 4 0
BITMAP
0E38
0760
03C0
0180
0000
0000
FFFC
FFFC
0300
0300
0700
0700
0700
0600
0600
0600
0E00
0E00
0C00
0C00
0C00
0C00
1C00
1C00
1800
ENDCHAR
STARTCHAR 0165
ENCODING 357
SWIDTH 468 0
DWIDTH 13 0
BBX 11 22 3 0
BITMAP
00C0
01E0
01E0
0C40
0C40
1CC0
1D80
FF80
FF80
1800
1800
3800
3800
3000
3000
3000
3000
7000
7000
7000
7E00
3E00
ENDCHAR
STARTCHAR 0166
ENCODING 358
SWIDTH 576 0
DWIDTH 16 0
BBX 14 19 4 0
BITMAP
FFFC
FFFC
0300
0300
0700
0700
0600
FFF0
FFF0
0600
0E00
0E00
0C00
0C00
0C00
0C00
1C00
1C00
1800
ENDCHAR
STARTCHAR 0167
ENCODING 359
SWIDTH 360 0
DWIDTH 10 0
BBX 10 19 2 0
BITMAP
0600
0600
0E00
0E00
7FC0
7FC0
0C00
0C00
1C00
1C00
FF80
1800
1800
1800
3800
3800
3800
3F00
1F00
ENDCHAR
STARTCHAR 0168
ENCODING 360
SWIDTH 684 0
DWIDTH 19 0
BBX 17 25 3 0
BITMAP
01E600
03FC00
021800
000000
000000
000000
300180
300180
300180
700380
700380
600380
600300
600300
600300
E00700
E00700
C00600
C00600
E00E00
E00C00
E01C00
787800
3FF000
1FC000
ENDCHAR
STARTCHAR 0169
ENCODING 361
SWIDTH 576 0
DWIDTH 16 0
BBX 14 20 3 0
BITMAP
0798
0DF0
0000
0000
0000
700C
700C
701C
601C
601C
6018
E018
E018
E038
C038
C038
E070
F0B0
7FB0
3E70
ENDCHAR
STARTCHAR 016A
ENCODING 362
SWIDTH 684 0
DWIDTH 19 0
BBX 17 23 3 0
BITMAP
03FE00
000000
000000
000000
300180
300180
300180
700380
700380
600380
600300
600300
600300
E00700
E00700
C00600
C00600
E00E00
E00C00
E01C00
787800
3FF000
1FC000
ENDCHAR
STARTCHAR 016B
ENCODING 363
SWIDTH 576 0
DWIDTH 16 0
BBX 14 19 3 0
BITMAP
0FF0
0FF0
0000
0000
700C
700C
701C
601C
601C
6018
E018
E018
E038
C038
C038
E070
F0B0
7FB0
3E70
ENDCHAR
STARTCHAR 016E
ENCODING 366
SWIDTH 684 0
DWIDTH 19 0
BBX 17 27 3 0
BITMAP
003000
007800
008800
008800
007000
000000
000000
000000
300180
300180
300180
700380
700380
600380
600300
600300
600300
E00700
E00700
C00600
C00600
E00E00
E00C00
E01C00
787800
3FF000
1FC000
ENDCHAR
STARTCHAR 016F
ENCODING 367
SWIDTH 576 0
DWIDTH 16 0
BBX 14 22 3 0
BITMAP
01C0
0360
0220
0240
0380
0000
0000
700C
700C
701C
601C
601C
6018
E018
E018
E038
C038
C038
E070
F0B0
7FB0
3E70
ENDCHAR
STARTCHAR 0172
ENCODING 370
SWIDTH 684 0
DWIDTH 19 0
BBX 17 24 3 -5
BITMAP
300180
300180
300180
700380
700380
600380
600300
600300
600300
E00700
E00700
C00600
C00600
E00E00
E00C00
E01C00
787800
3FF000
1FC000
060000
0C0000
0C0000
0F0000
070000
ENDCHAR
STARTCHAR 0173
ENCODING 371
SWIDTH 576 0
DWIDTH 16 0
BBX 14 20 3 -5
BITMAP
700C
700C
701C
601C
601C
6018
E018
E018
E038
C038
C038
E070
F0B0
7FB0
3E70
00E0
00C0
00C0
00F0
0020
ENDCHAR
STARTCHAR 0174
ENCODING 372
SWIDTH 972 0
DWIDTH 27 0
BBX 26 25 4 0
BITMAP
000F0000
001F8000
00318000
0060C000
00000000
00000000
C00C00C0
C01E01C0
C01E0180
C03E0380
E0360300
E0660700
E0660600
E0C60600
60C70E00
61870C00
61831C00
63831800
63033800
67033000
66033000
7E03E000
7C03E000
7C01E000
3801C000
ENDCHAR
STARTCHAR 0175
ENCODING 373
SWIDTH 792 0
DWIDTH 22 0
BBX 21 21 3 0
BITMAP
001800
003C00
006C00
00C600
018700
000000
E03018
607018
607030
60F030
60F860
61F860
6198E0
6398C0
7319C0
771980
761980
3E1F00
3C1F00
3C0E00
380E00
ENDCHAR
STARTCHAR 0176
ENCODING 374
SWIDTH 612 0
DWIDTH 17 0
BBX 14 25 5 0
BITMAP
0380
06C0
0C60
1870
0000
0000
C01C
C038
E030
6070
60E0
70C0
31C0
3380
3B00
1F00
1E00
1C00
1C00
1C00
1800
1800
1800
1800
3800
ENDCHAR
STARTCHAR 0177
ENCODING 375
SWIDTH 468 0
DWIDTH 13 0
BBX 16 27 0 -6
BITMAP
0060
00F0
01D8
039C
060C
0000
1803
1807
1C06
1C0C
0C1C
0C18
0C38
0E30
0E70
0660
06C0
06C0
0780
0380
0300
0600
0E00
0C00
3C00
F800
E000
ENDCHAR
STARTCHAR 0178
ENCODING 376
SWIDTH 612 0
DWIDTH 17 0
BBX 14 25 5 0
BITMAP
0C70
1C70
0C60
0000
0000
0000
C01C
C038
E030
6070
60E0
70C0
31C0
3380
3B00
1F00
1E00
1C00
1C00
1C00
1800
1800
1800
1800
3800
ENDCHAR
STARTCHAR 0179
ENCODING 377
SWIDTH 612 0
DWIDTH 17 0
BBX 16 26 2 0
BITMAP
000E
001C
0018
0030
0060
0000
0000
1FFF
3FFF
0007
000E
001C
0038
0070
00E0
01C0
0380
0700
0600
0E00
1C00
3800
7000
E000
FFF8
FFF8
ENDCHAR
STARTCHAR 017A
ENCODING 378
SWIDTH 468 0
DWIDTH 13 0
BBX 13 22 2 0
BITMAP
0018
0030
0060
00E0
00C0
0000
0000
3FF8
3FF8
0038
0070
00E0
01C0
0380
0700
0E00
1C00
3800
7000
E000
FFE0
FFE0
ENDCHAR
STARTCHAR 017B
ENCODING 379
SWIDTH 612 0
DWIDTH 17 0
BBX 16 25 2 0
BITMAP
0070
0070
0060
0000
0000
0000
1FFF
3FFF
0007
000E
001C
0038
0070
00E0
01C0
0380
0700
0600
0E00
1C00
3800
7000
E000
FFF8
FFF8
ENDCHAR
STARTCHAR 017C
ENCODING 380
SWIDTH 468 0
DWIDTH 13 0
BBX 13 20 2 0
BITMAP
01C0
01C0
0080
0000
0000
3FF8
3FF8
0038
0070
00E0
01C0
0380
0700
0E00
1C00
3800
7000
E000
FFE0
FFE0
ENDCHAR
STARTCHAR 017D
ENCODING 381
SWIDTH 612 0
DWIDTH 17 0
BBX 16 25 2 0
BITMAP
018E
01DC
00F0
0060
0000
0000
1FFF
3FFF
0007
000E
001C
0038
0070
00E0
01C0
0380
0700
0600
0E00
1C00
3800
7000
E000
FFF8
FFF8
ENDCHAR
STARTCHAR 017E
ENCODING 382
SWIDTH 468 0
DWIDTH 13 0
BBX 13 21 2 0
BITMAP
0C18
0630
0760
03C0
0180
0000
3FF8
3FF8
0038
0070
00E0
01C0
0380
0700
0E00
1C00
3800
7000
E000
FFE0
FFE0
ENDCHAR
STARTCHAR 01A0
ENCODING 416
SWIDTH 720 0
DWIDTH 20 0
BBX 18 22 3 0
BITMAP
0000C0
0000C0
00F9C0
03FF00
0F9F00
1E0380
380380
3001C0
7001C0
6001C0
E001C0
E001C0
E001C0
C00180
C00380
E00380
E00700
E00700
700E00
783C00
3FF800
0FE000
ENDCHAR
STARTCHAR 01A1
ENCODING 417
SWIDTH 576 0
DWIDTH 16 0
BBX 16 17 2 0
BITMAP
0003
0003
03FE
0FF8
1C38
381C
700C
600C
600C
E00C
E01C
E01C
E018
6038
7070
3FE0
1F80
ENDCHAR
STARTCHAR 01AF
ENCODING 431
SWIDTH 684 0
DWIDTH 19 0
BBX 21 22 3 0
BITMAP
000018
000018
000070
3001E0
300180
300180
700380
700380
600300
600300
600300
600300
E00700
E00700
C00600
C00600
E00E00
E00C00
E01C00
787800
3FF000
1FC000
ENDCHAR
STARTCHAR 01B0
ENCODING 432
SWIDTH 576 0
DWIDTH 16 0
BBX 18 17 3 0
BITMAP
0000C0
000180
700F80
700E00
701C00
601C00
601C00
601800
E01800
E01800
E03800
C03800
C03800
E07000
F0B000
7FB000
3E7000
ENDCHAR
STARTCHAR 02C6
ENCODING 710
SWIDTH 396 0
DWIDTH 11 0
BBX 9 5 4 16
BITMAP
0C00
1E00
3700
6300
C180
ENDCHAR
STARTCHAR 02C7
ENCODING 711
SWIDTH 396 0
DWIDTH 11 0
BBX 10 5 4 16
BITMAP
E1C0
6380
3700
1C00
1800
ENDCHAR
STARTCHAR 02D8
ENCODING 728
SWIDTH 396 0
DWIDTH 11 0
BBX 9 3 4 17
BITMAP
C180
7700
3E00
ENDCHAR
STARTCHAR 02D9
ENCODING 729
SWIDTH 144 0
DWIDTH 4 0
BBX 3 3 4 17
BITMAP
E0
E0
40
ENDCHAR
STARTCHAR 02DA
ENCODING 730
SWIDTH 216 0
DWIDTH 6 0
BBX 5 5 4 17
BITMAP
30
58
88
98
70
ENDCHAR
STARTCHAR 02DB
ENCODING 731
SWIDTH 180 0
DWIDTH 5 0
BBX 4 5 0 -5
BITMAP
30
60
C0
C0
70
ENDCHAR
STARTCHAR 02DC
ENCODING 732
SWIDTH 360 0
DWIDTH 10 0
BBX 9 2 4 18
BITMAP
7980
CF00
ENDCHAR
STARTCHAR 0300
ENCODING 768
SWIDTH 0 0
DWIDTH 0 0
BBX 4 5 -2 17
BITMAP
C0
E0
60
60
30
ENDCHAR
STARTCHAR 0301
ENCODING 769
SWIDTH 0 0
DWIDTH 0 0
BBX 5 5 -2 17
BITMAP
18
30
60
E0
C0
ENDCHAR
STARTCHAR 0302
ENCODING 770
SWIDTH 0 0
DWIDTH 0 0
BBX 9 5 -7 16
BITMAP
0C00
1E00
3F00
6380
C180
ENDCHAR
STARTCHAR 0303
ENCODING 771
SWIDTH 0 0
DWIDTH 0 0
BBX 9 2 -6 18
BITMAP
7980
DF00
ENDCHAR
STARTCHAR 0304
ENCODING 772
SWIDTH 0 0
DWIDTH 0 0
BBX 8 1 -7 18
BITMAP
FF
ENDCHAR
STARTCHAR 0306
ENCODING 774
SWIDTH 0 0
DWIDTH 0 0
BBX 9 3 -7 17
BITMAP
E180
7780
3E00
ENDCHAR
STARTCHAR 0307
ENCODING 775
SWIDTH 0 0
DWIDTH 0 0
BBX 3 3 -2 17
BITMAP
E0
E0
40
ENDCHAR
STARTCHAR 0308
ENCODING 776
SWIDTH 0 0
DWIDTH 0 0
BBX 8 3 -7 17
BITMAP
E7
E7
42
ENDCHAR
STARTCHAR 0309
ENCODING 777
SWIDTH 0 0
DWIDTH 0 0
BBX 6 5 -3 17
BITMAP
78
CC
08
18
60
ENDCHAR
STARTCHAR 030A
ENCODING 778
SWIDTH 0 0
DWIDTH 0 0
BBX 5 5 -3 17
BITMAP
30
D8
88
98
70
ENDCHAR
STARTCHAR 030C
ENCODING 780
SWIDTH 0 0
DWIDTH 0 0
BBX 9 5 -7 16
BITMAP
C180
6300
3600
3C00
1800
ENDCHAR
STARTCHAR 031B
ENCODING 795
SWIDTH 0 0
DWIDTH 0 0
BBX 5 4 -3 15
BITMAP
18
18
F8
E0
ENDCHAR
STARTCHAR 0323
ENCODING 803
SWIDTH 0 0
DWIDTH 0 0
BBX 3 3 -4 -6
BITMAP
E0
E0
C0
ENDCHAR
STARTCHAR 0327
ENCODING 807
SWIDTH 0 0
DWIDTH 0 0
BBX 6 7 -7 -7
BITMAP
20
60
78
0C
08
F8
F0
ENDCHAR
STARTCHAR 0328
ENCODING 808
SWIDTH 0 0
DWIDTH 0 0
BBX 4 5 -6 -5
BITMAP
30
60
C0
C0
70
ENDCHAR
STARTCHAR 1E80
ENCODING 7808
SWIDTH 972 0
DWIDTH 27 0
BBX 26 26 4 0
BITMAP
00380000
00180000
001C0000
000C0000
000C0000
00000000
00000000
C00C00C0
C01E01C0
C01E0180
C03E0380
E0360300
E0660700
E0660600
E0C60600
60C70E00
61870C00
61831C00
63831800
63033800
67033000
66033000
7E03E000
7C03E000
7C01E000
3801C000
ENDCHAR
STARTCHAR 1E81
ENCODING 7809
SWIDTH 792 0
DWIDTH 22 0
BBX 21 22 3 0
BITMAP
00C000
00E000
006000
006000
003000
000000
000000
E03018
607018
607030
60F030
60F860
61F860
6198E0
6398C0
7319C0
771980
761980
3E1F00
3C1F00
3C0E00
380E00
ENDCHAR
STARTCHAR 1E82
ENCODING 7810
SWIDTH 972 0
DWIDTH 27 0
BBX 26 26 4 0
BITMAP
0001C000
00018000
00030000
00060000
00060000
00000000
00000000
C00C00C0
C01E01C0
C01E0180
C03E0380
E0360300
E0660700
E0660600
E0C60600
60C70E00
61870C00
61831C00
63831800
63033800
67033000
66033000
7E03E000
7C03E000
7C01E000
3801C000
ENDCHAR
STARTCHAR 1E83
ENCODING 7811
SWIDTH 792 0
DWIDTH 22 0
BBX 21 22 3 0
BITMAP
000300
000700
000E00
000C00
001800
000000
000000
E03018
607018
607030
60F030
60F860
61F860
6198E0
6398C0
7319C0
771980
761980
3E1F00
3C1F00
3C0E00
380E00
ENDCHAR
STARTCHAR 1E84
ENCODING 7812
SWIDTH 972 0
DWIDTH 27 0
BBX 26 25 4 0
BITMAP
0039C000
0039C000
00318000
00000000
00000000
00000000
C00C00C0
C01E01C0
C01E0180
C03E0380
E0360300
E0660700
E0660600
E0C60600
60C70E00
61870C00
61831C00
63831800
63033800
67033000
66033000
7E03E000
7C03E000
7C01E000
3801C000
ENDCHAR
STARTCHAR 1E85
ENCODING 7813
SWIDTH 792 0
DWIDTH 22 0
BBX 21 20 3 0
BITMAP
00C700
01C700
008200
000000
000000
E03018
607018
607030
60F030
60F860
61F860
6198E0
6398C0
7319C0
771980
761980
3E1F00
3C1F00
3C0E00
380E00
ENDCHAR
STARTCHAR 1EA0
ENCODING 7840
SWIDTH 648 0
DWIDTH 18 0
BBX 17 25 1 -6
BITMAP
003800
003800
007C00
00FC00
00CC00
01CC00
018C00
038E00
030E00
070600
060600
0FFE00
0FFF00
180700
380300
300300
700300
600380
E00380
000000
000000
000000
018000
038000
038000
ENDCHAR
STARTCHAR 1EA1
ENCODING 7841
SWIDTH 576 0
DWIDTH 16 0
BBX 15 21 2 -6
BITMAP
07C6
0FE6
1C36
381E
700E
600C
600C
E00C
E01C
E01C
E01C
E038
7058
7F98
3F18
0000
0000
0000
0600
0E00
0E00
ENDCHAR
STARTCHAR 1EA2
ENCODING 7842
SWIDTH 648 0
DWIDTH 18 0
BBX 17 27 1 0
BITMAP
000400
003E00
003300
000200
000C00
001800
000000
000000
003800
003800
007C00
00FC00
00CC00
01CC00
018C00
038E00
030E00
070600
060600
0FFE00
0FFF00
180700
380300
300300
700300
600380
E00380
ENDCHAR
STARTCHAR 1EA3
ENCODING 7843
SWIDTH 576 0
DWIDTH 16 0
BBX 15 22 2 0
BITMAP
0060
01F0
0118
0030
0060
0000
0000
07C6
0FE6
1C36
381E
700E
600C
600C
E00C
E01C
E01C
E01C
E038
7058
7F98
3F18
ENDCHAR
STARTCHAR 1EA4
ENCODING 7844
SWIDTH 648 0
DWIDTH 18 0
BBX 22 30 1 0
BITMAP
00001C
000038
000030
000060
0000C0
001C00
003600
006700
00C380
000000
000000
003800
003800
007C00
00FC00
00CC00
01CC00
018C00
038E00
030E00
070600
060600
0FFE00
0FFF00
180700
380300
300300
700300
600380
E00380
ENDCHAR
STARTCHAR 1EA5
ENCODING 7845
SWIDTH 576 0
DWIDTH 16 0
BBX 19 25 2 0
BITMAP
0000E0
0001C0
000180
000300
006600
00F000
01B000
071800
0E1C00
000000
07C600
0FE600
1C3600
381E00
700E00
600C00
600C00
E00C00
E01C00
E01C00
E01C00
E03800
705800
7F9800
3F1800
ENDCHAR
STARTCHAR 1EA6
ENCODING 7846
SWIDTH 648 0
DWIDTH 18 0
BBX 18 30 1 0
BITMAP
000700
000300
000380
000180
0000C0
001C00
003600
006700
00C380
000000
000000
003800
003800
007C00
00FC00
00CC00
01CC00
018C00
038E00
030E00
070600
060600
0FFE00
0FFF00
180700
380300
300300
700300
600380
E00380
ENDCHAR
STARTCHAR 1EA7
ENCODING 7847
SWIDTH 576 0
DWIDTH 16 0
BBX 15 25 2 0
BITMAP
0018
0018
000C
000C
0066
00F0
01B0
0718
0E1C
0000
07C6
0FE6
1C36
381E
700E
600C
600C
E00C
E01C
E01C
E01C
E038
7058
7F98
3F18
ENDCHAR
STARTCHAR 1EA8
ENCODING 7848
SWIDTH 648 0
DWIDTH 18 0
BBX 20 30 1 0
BITMAP
0000F0
0001B0
000030
000030
0000C0
001C00
003600
006700
00C380
000000
000000
003800
003800
007C00
00FC00
00CC00
01CC00
018C00
038E00
030E00
070600
060600
0FFE00
0FFF00
180700
380300
300300
700300
600380
E00380
ENDCHAR
STARTCHAR 1EA9
ENCODING 7849
SWIDTH 576 0
DWIDTH 16 0
BBX 17 25 2 0
BITMAP
000F80
000D80
000180
000100
006600
00F000
01B000
031800
0E1C00
000000
07C600
0FE600
1C3600
381E00
700E00
600C00
600C00
E00C00
E01C00
E01C00
E01C00
E03800
705800
7F9800
3F1800
ENDCHAR
STARTCHAR 1EAA
ENCODING 7850
SWIDTH 648 0
DWIDTH 18 0
BBX 17 29 1 0
BITMAP
007D80
00CF00
000000
000000
001C00
003600
006700
00C380
000000
000000
003800
003800
007C00
00FC00
00CC00
01CC00
018C00
038E00
030E00
070600
060600
0FFE00
0FFF00
180700
380300
300300
700300
600380
E00380
ENDCHAR
STARTCHAR 1EAB
ENCODING 7851
SWIDTH 576 0
DWIDTH 16 0
BBX 15 25 2 0
BITMAP
0086
03FC
0678
0000
0060
00F0
01B0
0318
0E1C
0000
07C6
0FE6
1C36
381E
700E
600C
600C
E00C
E01C
E01C
E01C
E038
7058
7F98
3F18
ENDCHAR
STARTCHAR 1EAC
ENCODING 7852
SWIDTH 648 0
DWIDTH 18 0
BBX 17 31 1 -6
BITMAP
001C00
003600
006700
00C380
000000
000000
003800
003800
007C00
00FC00
00CC00
01CC00
018C00
038E00
030E00
070600
060600
0FFE00
0FFF00
180700
380300
300300
700300
600380
E00380
000000
000000
000000
018000
038000
038000
ENDCHAR
STARTCHAR 1EAD
ENCODING 7853
SWIDTH 576 0
DWIDTH 16 0
BBX 15 27 2 -6
BITMAP
0060
00F0
01B0
0718
0E1C
0000
07C6
0FE6
1C36
381E
700E
600C
600C
E00C
E01C
E01C
E01C
E038
7058
7F98
3F18
0000
0000
0000
0600
0E00
0E00
ENDCHAR
STARTCHAR 1EAE
ENCODING 7854
SWIDTH 648 0
DWIDTH 18 0
BBX 17 30 1 0
BITMAP
000180
000300
000700
000600
000C00
00C180
00E300
007E00
000000
000000
000000
003800
003800
007C00
00FC00
00CC00
01CC00
018C00
038E00
030E00
070600
060600
0FFE00
0FFF00
180700
380300
300300
700300
600380
E00380
ENDCHAR
STARTCHAR 1EAF
ENCODING 7855
SWIDTH 576 0
DWIDTH 16 0
BBX 15 26 2 0
BITMAP
000E
000C
0018
0030
0030
0040
060C
03B8
01F0
0000
0000
07C6
0FE6
1C36
381E
700E
600C
600C
E00C
E01C
E01C
E01C
E038
7058
7F98
3F18
ENDCHAR
STARTCHAR 1EB0
ENCODING 7856
SWIDTH 648 0
DWIDTH 18 0
BBX 17 30 1 0
BITMAP
003000
003800
001800
001800
000C00
00C180
006300
007E00
000000
000000
000000
003800
003800
007C00
00FC00
00CC00
01CC00
018C00
038E00
030E00
070600
060600
0FFE00
0FFF00
180700
380300
300300
700300
600380
E00380
ENDCHAR
STARTCHAR 1EB1
ENCODING 7857
SWIDTH 576 0
DWIDTH 16 0
BBX 15 26 2 0
BITMAP
0380
0180
01C0
00C0
00C0
0000
060C
03B8
01F0
0000
0000
07C6
0FE6
1C36
381E
700E
600C
600C
E00C
E01C
E01C
E01C
E038
7058
7F98
3F18
ENDCHAR
STARTCHAR 1EB2
ENCODING 7858
SWIDTH 648 0
DWIDTH 18 0
BBX 17 31 1 0
BITMAP
000400
001F00
003300
000300
000600
000C00
00C180
00E300
007E00
000000
000000
000000
003800
003800
007C00
00FC00
00CC00
01CC00
018C00
038E00
030E00
070600
060600
0FFE00
0FFF00
180700
380300
300300
700300
600380
E00380
ENDCHAR
STARTCHAR 1EB3
ENCODING 7859
SWIDTH 576 0
DWIDTH 16 0
BBX 15 26 2 0
BITMAP
0070
00F8
0198
0018
0030
0040
060C
03B8
01F0
0000
0000
07C6
0FE6
1C36
381E
700E
600C
600C
E00C
E01C
E01C
E01C
E038
7058
7F98
3F18
ENDCHAR
STARTCHAR 1EB4
ENCODING 7860
SWIDTH 648 0
DWIDTH 18 0
BBX 18 29 1 0
BITMAP
0038C0
007F80
00C300
000000
00C180
00E300
007E00
000000
000000
000000
003800
003800
007C00
00FC00
00CC00
01CC00
018C00
038E00
030E00
070600
060600
0FFE00
0FFF00
180700
380300
300300
700300
600380
E00380
ENDCHAR
STARTCHAR 1EB5
ENCODING 7861
SWIDTH 576 0
DWIDTH 16 0
BBX 15 24 2 0
BITMAP
01E6
037C
0600
0000
060C
03B8
01F0
0000
0000
07C6
0FE6
1C36
381E
700E
600C
600C
E00C
E01C
E01C
E01C
E038
7058
7F98
3F18
ENDCHAR
STARTCHAR 1EB6
ENCODING 7862
SWIDTH 648 0
DWIDTH 18 0
BBX 17 31 1 -6
BITMAP
00C180
00E300
007E00
000000
000000
000000
003800
003800
007C00
00FC00
00CC00
01CC00
018C00
038E00
030E00
070600
060600
0FFE00
0FFF00
180700
380300
300300
700300
600380
E00380
000000
000000
000000
018000
038000
038000
ENDCHAR
STARTCHAR 1EB7
ENCODING 7863
SWIDTH 576 0
DWIDTH 16 0
BBX 15 26 2 -6
BITMAP
060C
03B8
01F0
0000
0000
07C6
0FE6
1C36
381E
700E
600C
600C
E00C
E01C
E01C
E01C
E038
7058
7F98
3F18
0000
0000
0000
0600
0E00
0E00
ENDCHAR
STARTCHAR 1EB8
ENCODING 7864
SWIDTH 540 0
DWIDTH 15 0
BBX 15 25 2 -6
BITMAP
1FFE
1FFE
1800
1800
1800
3800
3800
3000
3FF8
3FF8
3000
7000
7000
6000
6000
6000
E000
FFF0
FFF0
0000
0000
0000
0E00
0E00
0C00
ENDCHAR
STARTCHAR 1EB9
ENCODING 7865
SWIDTH 540 0
DWIDTH 15 0
BBX 14 21 2 -6
BITMAP
07F0
0FF8
1C1C
301C
701C
601C
FFF8
FFF0
E000
E000
E018
6038
7070
3FE0
1F80
0000
0000
0000
0300
0700
0700
ENDCHAR
STARTCHAR 1EBA
ENCODING 7866
SWIDTH 540 0
DWIDTH 15 0
BBX 15 27 2 0
BITMAP
0020
00F8
0198
0018
0030
0060
0000
0000
1FFE
1FFE
1800
1800
1800
3800
3800
3000
3FF8
3FF8
3000
7000
7000
6000
6000
6000
E000
FFF0
FFF0
ENDCHAR
STARTCHAR 1EBB
ENCODING 7867
SWIDTH 540 0
DWIDTH 15 0
BBX 14 22 2 0
BITMAP
0060
01F0
0198
0030
0060
0000
0000
07F0
0FF8
1C1C
301C
701C
601C
FFF8
FFF0
E000
E000
E018
6038
7070
3FE0
1F80
ENDCHAR
STARTCHAR 1EBC
ENCODING 7868
SWIDTH 540 0
DWIDTH 15 0
BBX 15 25 2 0
BITMAP
01E6
03FC
0618
0000
0000
0000
1FFE
1FFE
1800
1800
1800
3800
3800
3000
3FF8
3FF8
3000
7000
7000
6000
6000
6000
E000
FFF0
FFF0
ENDCHAR
STARTCHAR 1EBD
ENCODING 7869
SWIDTH 540 0
DWIDTH 15 0
BBX 14 20 2 0
BITMAP
03CC
06F8
0000
0000
0000
07F0
0FF8
1C1C
301C
701C
601C
FFF8
FFF0
E000
E000
E018
6038
7070
3FE0
1F80
ENDCHAR
STARTCHAR 1EBE
ENCODING 7870
SWIDTH 540 0
DWIDTH 15 0
BBX 19 30 2 0
BITMAP
000060
0000E0
0001C0
000180
000300
00F000
01F800
039800
070C00
000000
000000
1FFE00
1FFE00
180000
180000
180000
380000
380000
300000
3FF800
3FF800
300000
700000
700000
600000
600000
600000
E00000
FFF000
FFF000
ENDCHAR
STARTCHAR 1EBF
ENCODING 7871
SWIDTH 540 0
DWIDTH 15 0
BBX 19 25 2 0
BITMAP
0000E0
0001C0
000180
000300
006600
00F000
01B000
031800
0E1C00
000000
07F000
0FF800
1C1C00
301C00
701C00
601C00
FFF800
FFF000
E00000
E00000
E01800
603800
707000
3FE000
1F8000
ENDCHAR
STARTCHAR 1EC0
ENCODING 7872
SWIDTH 540 0
DWIDTH 15 0
BBX 15 30 2 0
BITMAP
001C
000C
000C
0006
0006
00F0
01F8
0398
070C
0000
0000
1FFE
1FFE
1800
1800
1800
3800
3800
3000
3FF8
3FF8
3000
7000
7000
6000
6000
6000
E000
FFF0
FFF0
ENDCHAR
STARTCHAR 1EC1
ENCODING 7873
SWIDTH 540 0
DWIDTH 15 0
BBX 15 25 2 0
BITMAP
0018
001C
000C
000C
0066
00F0
01B0
0718
0E1C
0000
07F0
0FF8
1C1C
301C
701C
601C
FFF8
FFF0
E000
E000
E018
6038
7070
3FE0
1F80
ENDCHAR
STARTCHAR 1EC2
ENCODING 7874
SWIDTH 540 0
DWIDTH 15 0
BBX 18 30 2 0
BITMAP
000780
000FC0
0000C0
000180
000300
00F000
01F800
039800
070C00
000000
000000
1FFE00
1FFE00
180000
180000
180000
380000
380000
300000
3FF800
3FF800
300000
700000
700000
600000
600000
600000
E00000
FFF000
FFF000
ENDCHAR
STARTCHAR 1EC3
ENCODING 7875
SWIDTH 540 0
DWIDTH 15 0
BBX 17 25 2 0
BITMAP
000F80
000D80
000180
000180
006600
00F000
01B000
031800
0E1C00
000000
07F000
0FF800
1C1C00
301C00
701C00
601C00
FFF800
FFF000
E00000
E00000
E01800
603800
707000
3FE000
1F8000
ENDCHAR
STARTCHAR 1EC4
ENCODING 7876
SWIDTH 540 0
DWIDTH 15 0
BBX 15 29 2 0
BITMAP
01F6
033C
0000
0000
00F0
01F8
0398
070C
0000
0000
1FFE
1FFE
1800
1800
1800
3800
3800
3000
3FF8
3FF8
3000
7000
7000
6000
6000
6000
E000
FFF0
FFF0
ENDCHAR
STARTCHAR 1EC5
ENCODING 7877
SWIDTH 540 0
DWIDTH 15 0
BBX 15 25 2 0
BITMAP
0086
03FC
0638
0000
0060
00F0
01B0
0318
0E1C
0000
07F0
0FF8
1C1C
301C
701C
601C
FFF8
FFF0
E000
E000
E018
6038
7070
3FE0
1F80
ENDCHAR
STARTCHAR 1EC6
ENCODING 7878
SWIDTH 540 0
DWIDTH 15 0
BBX 15 31 2 -6
BITMAP
00F0
01F8
0398
070C
0000
0000
1FFE
1FFE
1800
1800
1800
3800
3800
3000
3FF8
3FF8
3000
7000
7000
6000
6000
6000
E000
FFF0
FFF0
0000
0000
0000
0E00
0E00
0C00
ENDCHAR
STARTCHAR 1EC7
ENCODING 7879
SWIDTH 540 0
DWIDTH 15 0
BBX 14 27 2 -6
BITMAP
0060
00F0
01B0
0318
0E1C
0000
07F0
0FF8
1C1C
301C
701C
601C
FFF8
FFF0
E000
E000
E018
6038
7070
3FE0
1F80
0000
0000
0000
0300
0700
0700
ENDCHAR
STARTCHAR 1EC8
ENCODING 7880
SWIDTH 216 0
DWIDTH 6 0
BBX 9 27 2 0
BITMAP
0400
1F00
1980
0300
0600
0C00
0000
0000
1C00
1C00
1800
1800
1800
3800
3800
3800
3000
3000
3000
7000
7000
7000
6000
6000
6000
E000
E000
ENDCHAR
STARTCHAR 1EC9
ENCODING 7881
SWIDTH 216 0
DWIDTH 6 0
BBX 8 22 2 0
BITMAP
0E
3F
33
02
0C
00
00
18
18
38
38
30
30
30
30
70
70
60
60
60
60
E0
ENDCHAR
STARTCHAR 1ECA
ENCODING 7882
SWIDTH 216 0
DWIDTH 6 0
BBX 7 25 1 -6
BITMAP
0E
0E
0C
0C
0C
1C
1C
1C
18
18
18
38
38
38
30
30
30
70
70
00
00
00
60
E0
E0
ENDCHAR
STARTCHAR 1ECB
ENCODING 7883
SWIDTH 216 0
DWIDTH 6 0
BBX 7 26 1 -6
BITMAP
0E
0E
04
00
00
0C
0C
1C
1C
18
18
18
18
38
38
30
30
30
30
70
00
00
00
60
E0
E0
ENDCHAR
STARTCHAR 1ECC
ENCODING 7884
SWIDTH 720 0
DWIDTH 20 0
BBX 18 26 3 -6
BITMAP
00F800
03FE00
0F9F00
1E0380
380380
3001C0
7001C0
6001C0
E001C0
E001C0
E001C0
C00180
C00380
E00380
E00700
E00700
700E00
783C00
3FF800
0FE000
000000
000000
000000
030000
070000
070000
ENDCHAR
STARTCHAR 1ECD
ENCODING 7885
SWIDTH 576 0
DWIDTH 16 0
BBX 14 21 2 -6
BITMAP
03E0
0FF8
1C38
381C
700C
600C
600C
E00C
E01C
E01C
E018
6038
7070
3FE0
1F80
0000
0000
0000
0C00
0E00
0C00
ENDCHAR
STARTCHAR 1ECE
ENCODING 7886
SWIDTH 720 0
DWIDTH 20 0
BBX 18 27 3 0
BITMAP
001800
007C00
00C400
000C00
001800
003000
000000
00F800
03FE00
0F9F00
1E0380
380380
3001C0
7001C0
6001C0
E001C0
E001C0
E001C0
C00180
C00380
E00380
E00700
E00700
700E00
783C00
3FF800
0FE000
ENDCHAR
STARTCHAR 1ECF
ENCODING 7887
SWIDTH 576 0
DWIDTH 16 0
BBX 14 22 2 0
BITMAP
00E0
01F0
0330
0030
0060
0080
0000
03E0
0FF8
1C38
381C
700C
600C
600C
E00C
E01C
E01C
E018
6038
7070
3FE0
1F80
ENDCHAR
STARTCHAR 1ED0
ENCODING 7888
SWIDTH 720 0
DWIDTH 20 0
BBX 21 30 3 0
BITMAP
000038
000070
000060
0000C0
000180
003800
006C00
01CE00
038600
000000
00F800
03FE00
0F9F00
1E0380
380380
3001C0
7001C0
6001C0
E001C0
E001C0
E001C0
C00180
C00380
E00380
E00700
E00700
700E00
783C00
3FF800
0FE000
ENDCHAR
STARTCHAR 1ED1
ENCODING 7889
SWIDTH 576 0
DWIDTH 16 0
BBX 18 25 2 0
BITMAP
0000C0
000180
000380
000300
00C600
01E000
03B000
073800
0C1800
000000
03E000
0FF800
1C3800
381C00
700C00
600C00
600C00
E00C00
E01C00
E01C00
E01800
603800
707000
3FE000
1F8000
ENDCHAR
STARTCHAR 1ED2
ENCODING 7890
SWIDTH 720 0
DWIDTH 20 0
BBX 18 30 3 0
BITMAP
000E00
000600
000700
000300
000300
003800
00FC00
01CE00
038600
000000
00F800
03FE00
0F9F00
1E0380
380380
3001C0
7001C0
6001C0
E001C0
E001C0
E001C0
C00180
C00380
E00380
E00700
E00700
700E00
783C00
3FF800
0FE000
ENDCHAR
STARTCHAR 1ED3
ENCODING 7891
SWIDTH 576 0
DWIDTH 16 0
BBX 14 25 2 0
BITMAP
0038
0018
001C
000C
00CC
01E0
03B0
0738
0C18
0000
03E0
0FF8
1C38
381C
700C
600C
600C
E00C
E01C
E01C
E018
6038
7070
3FE0
1F80
ENDCHAR
STARTCHAR 1ED4
ENCODING 7892
SWIDTH 720 0
DWIDTH 20 0
BBX 19 30 3 0
BITMAP
0003C0
000760
000060
000040
000180
003800
006C00
01CE00
038600
000000
00F800
03FE00
0F9F00
1E0380
380380
3001C0
7001C0
6001C0
E001C0
E001C0
E001C0
C00180
C00380
E00380
E00700
E00700
700E00
783C00
3FF800
0FE000
ENDCHAR
STARTCHAR 1ED5
ENCODING 7893
SWIDTH 576 0
DWIDTH 16 0
BBX 17 25 2 0
BITMAP
000F00
001980
000180
000300
00C600
01E000
03B000
073800
0C1800
000000
03E000
0FF800
1C3800
381C00
700C00
600C00
600C00
E00C00
E01C00
E01C00
E01800
603800
707000
3FE000
1F8000
ENDCHAR
STARTCHAR 1ED6
ENCODING 7894
SWIDTH 720 0
DWIDTH 20 0
BBX 18 29 3 0
BITMAP
00FB00
019E00
000000
000000
003800
006C00
01CE00
038600
000000
00F800
03FE00
0F9F00
1E0380
380380
3001C0
7001C0
6001C0
E001C0
E001C0
E001C0
C00180
C00380
E00380
E00700
E00700
700E00
783C00
3FF800
0FE000
ENDCHAR
STARTCHAR 1ED7
ENCODING 7895
SWIDTH 576 0
DWIDTH 16 0
BBX 14 25 2 0
BITMAP
0184
03FC
0678
0000
00C0
01E0
03B0
0738
0C18
0000
03E0
0FF8
1C38
381C
700C
600C
600C
E00C
E01C
E01C
E018
6038
7070
3FE0
1F80
ENDCHAR
STARTCHAR 1ED8
ENCODING 7896
SWIDTH 720 0
DWIDTH 20 0
BBX 18 31 3 -6
BITMAP
003800
006C00
01CE00
038600
000000
00F800
03FE00
0F9F00
1E0380
380380
3001C0
7001C0
6001C0
E001C0
E001C0
E001C0
C00180
C00380
E00380
E00700
E00700
700E00
783C00
3FF800
0FE000
000000
000000
000000
030000
070000
070000
ENDCHAR
STARTCHAR 1ED9
ENCODING 7897
SWIDTH 576 0
DWIDTH 16 0
BBX 14 27 2 -6
BITMAP
00C0
01E0
03B0
0738
0C18
0000
03E0
0FF8
1C38
381C
700C
600C
600C
E00C
E01C
E01C
E018
6038
7070
3FE0
1F80
0000
0000
0000
0C00
0E00
0C00
ENDCHAR
STARTCHAR 1EDA
ENCODING 7898
SWIDTH 720 0
DWIDTH 20 0
BBX 18 26 3 0
BITMAP
000700
000E00
001C00
001800
0030C0
0000C0
00F9C0
03FF00
0F9F00
1E0380
380380
3001C0
7001C0
6001C0
E001C0
E001C0
E001C0
C00180
C00380
E00380
E00700
E00700
700E00
783C00
3FF800
0FE000
ENDCHAR
STARTCHAR 1EDB
ENCODING 7899
SWIDTH 576 0
DWIDTH 16 0
BBX 16 22 2 0
BITMAP
001C
0018
0030
0060
0060
0083
0003
03FE
0FF8
1C38
381C
700C
600C
600C
E00C
E01C
E01C
E018
6038
7070
3FE0
1F80
ENDCHAR
STARTCHAR 1EDC
ENCODING 7900
SWIDTH 720 0
DWIDTH 20 0
BBX 18 26 3 0
BITMAP
00C000
00E000
006000
006000
0030C0
0000C0
00F9C0
03FF00
0F9F00
1E0380
380380
3001C0
7001C0
6001C0
E001C0
E001C0
E001C0
C00180
C00380
E00380
E00700
E00700
700E00
783C00
3FF800
0FE000
ENDCHAR
STARTCHAR 1EDD
ENCODING 7901
SWIDTH 576 0
DWIDTH 16 0
BBX 16 22 2 0
BITMAP
0700
0300
0380
0180
0180
0003
0003
03FE
0FF8
1C38
381C
700C
600C
600C
E00C
E01C
E01C
E018
6038
7070
3FE0
1F80
ENDCHAR
STARTCHAR 1EDE
ENCODING 7902
SWIDTH 720 0
DWIDTH 20 0
BBX 18 27 3 0
BITMAP
001800
007C00
00C400
000C00
001800
0030C0
0000C0
00F9C0
03FF00
0F9F00
1E0380
380380
3001C0
7001C0
6001C0
E001C0
E001C0
E001C0
C00180
C00380
E00380
E00700
E00700
700E00
783C00
3FF800
0FE000
ENDCHAR
STARTCHAR 1EDF
ENCODING 7903
SWIDTH 576 0
DWIDTH 16 0
BBX 16 22 2 0
BITMAP
00E0
01F0
0330
0030
0060
0083
0003
03FE
0FF8
1C38
381C
700C
600C
600C
E00C
E01C
E01C
E018
6038
7070
3FE0
1F80
ENDCHAR
STARTCHAR 1EE0
ENCODING 7904
SWIDTH 720 0
DWIDTH 20 0
BBX 18 25 3 0
BITMAP
00F300
01FE00
010800
0000C0
0000C0
00F9C0
03FF00
0F9F00
1E0380
380380
3001C0
7001C0
6001C0
E001C0
E001C0
E001C0
C00180
C00380
E00380
E00700
E00700
700E00
783C00
3FF800
0FE000
ENDCHAR
STARTCHAR 1EE1
ENCODING 7905
SWIDTH 576 0
DWIDTH 16 0
BBX 16 20 2 0
BITMAP
03CC
06F8
0000
0003
0003
03FE
0FF8
1C38
381C
700C
600C
600C
E00C
E01C
E01C
E018
6038
7070
3FE0
1F80
ENDCHAR
STARTCHAR 1EE2
ENCODING 7906
SWIDTH 720 0
DWIDTH 20 0
BBX 18 28 3 -6
BITMAP
0000C0
0000C0
00F9C0
03FF00
0F9F00
1E0380
380380
3001C0
7001C0
6001C0
E001C0
E001C0
E001C0
C00180
C00380
E00380
E00700
E00700
700E00
783C00
3FF800
0FE000
000000
000000
000000
030000
070000
070000
ENDCHAR
STARTCHAR 1EE3
ENCODING 7907
SWIDTH 576 0
DWIDTH 16 0
BBX 16 23 2 -6
BITMAP
0003
0003
03FE
0FF8
1C38
381C
700C
600C
600C
E00C
E01C
E01C
E018
6038
7070
3FE0
1F80
0000
0000
0000
0C00
0E00
0C00
ENDCHAR
STARTCHAR 1EE4
ENCODING 7908
SWIDTH 684 0
DWIDTH 19 0
BBX 17 25 3 -6
BITMAP
300180
300180
300180
700380
700380
600380
600300
600300
600300
E00700
E00700
C00600
C00600
E00E00
E00C00
E01C00
787800
3FF000
1FC000
000000
000000
000000
060000
0E0000
0E0000
ENDCHAR
STARTCHAR 1EE5
ENCODING 7909
SWIDTH 576 0
DWIDTH 16 0
BBX 14 21 3 -6
BITMAP
700C
700C
701C
601C
601C
6018
E018
E018
E038
C038
C038
E070
F0B0
7FB0
3E70
0000
0000
0000
1800
1C00
1800
ENDCHAR
STARTCHAR 1EE6
ENCODING 7910
SWIDTH 684 0
DWIDTH 19 0
BBX 17 27 3 0
BITMAP
001000
00F800
00CC00
000800
003800
006000
000000
000000
300180
300180
300180
700380
700380
600380
600300
600300
600300
E00700
E00700
C00600
C00600
E00E00
E00C00
E01C00
787800
3FF000
1FC000
ENDCHAR
STARTCHAR 1EE7
ENCODING 7911
SWIDTH 576 0
DWIDTH 16 0
BBX 14 22 3 0
BITMAP
01C0
03E0
0660
0060
00C0
0100
0000
700C
700C
701C
601C
601C
6018
E018
E018
E038
C038
C038
E070
F0B0
7FB0
3E70
ENDCHAR
STARTCHAR 1EE8
ENCODING 7912
SWIDTH 684 0
DWIDTH 19 0
BBX 21 26 3 0
BITMAP
000E00
000C00
001800
003000
006018
000018
000070
3001E0
300180
300180
700380
700380
600300
600300
600300
600300
E00700
E00700
C00600
C00600
E00E00
E00C00
E01C00
787800
3FF000
1FC000
ENDCHAR
STARTCHAR 1EE9
ENCODING 7913
SWIDTH 576 0
DWIDTH 16 0
BBX 18 22 3 0
BITMAP
003800
003000
006000
00C000
00C000
0100C0
000180
700F80
700E00
701C00
601C00
601C00
601800
E01800
E01800
E03800
C03800
C03800
E07000
F0B000
7FB000
3E7000
ENDCHAR
STARTCHAR 1EEA
ENCODING 7914
SWIDTH 684 0
DWIDTH 19 0
BBX 21 26 3 0
BITMAP
01C000
00C000
00C000
006000
006018
000018
000070
3001E0
300180
300180
700380
700380
600300
600300
600300
600300
E00700
E00700
C00600
C00600
E00E00
E00C00
E01C00
787800
3FF000
1FC000
ENDCHAR
STARTCHAR 1EEB
ENCODING 7915
SWIDTH 576 0
DWIDTH 16 0
BBX 18 22 3 0
BITMAP
1C0000
0C0000
0E0000
060000
070000
0000C0
000180
700F80
700E00
701C00
601C00
601C00
601800
E01800
E01800
E03800
C03800
C03800
E07000
F0B000
7FB000
3E7000
ENDCHAR
STARTCHAR 1EEC
ENCODING 7916
SWIDTH 684 0
DWIDTH 19 0
BBX 21 27 3 0
BITMAP
001000
00F800
00CC00
000800
003800
006018
000018
000070
3001E0
300180
300180
700380
700380
600300
600300
600300
600300
E00700
E00700
C00600
C00600
E00E00
E00C00
E01C00
787800
3FF000
1FC000
ENDCHAR
STARTCHAR 1EED
ENCODING 7917
SWIDTH 576 0
DWIDTH 16 0
BBX 18 22 3 0
BITMAP
01C000
03E000
066000
006000
00C000
0100C0
000180
700F80
700E00
701C00
601C00
601C00
601800
E01800
E01800
E03800
C03800
C03800
E07000
F0B000
7FB000
3E7000
ENDCHAR
STARTCHAR 1EEE
ENCODING 7918
SWIDTH 684 0
DWIDTH 19 0
BBX 21 25 3 0
BITMAP
01E600
03FC00
021800
000018
000018
000070
3001E0
300180
300180
700380
700380
600300
600300
600300
600300
E00700
E00700
C00600
C00600
E00E00
E00C00
E01C00
787800
3FF000
1FC000
ENDCHAR
STARTCHAR 1EEF
ENCODING 7919
SWIDTH 576 0
DWIDTH 16 0
BBX 18 20 3 0
BITMAP
079800
0DF000
000000
0000C0
000180
700F80
700E00
701C00
601C00
601C00
601800
E01800
E01800
E03800
C03800
C03800
E07000
F0B000
7FB000
3E7000
ENDCHAR
STARTCHAR 1EF0
ENCODING 7920
SWIDTH 684 0
DWIDTH 19 0
BBX 21 28 3 -6
BITMAP
000018
000018
000070
3001E0
300180
300180
700380
700380
600300
600300
600300
600300
E00700
E00700
C00600
C00600
E00E00
E00C00
E01C00
787800
3FF000
1FC000
000000
000000
000000
060000
0E0000
0E0000
ENDCHAR
STARTCHAR 1EF1
ENCODING 7921
SWIDTH 576 0
DWIDTH 16 0
BBX 18 23 3 -6
BITMAP
0000C0
000180
700F80
700E00
701C00
601C00
601C00
601800
E01800
E01800
E03800
C03800
C03800
E07000
F0B000
7FB000
3E7000
000000
000000
000000
180000
380000
380000
ENDCHAR
STARTCHAR 1EF2
ENCODING 7922
SWIDTH 612 0
DWIDTH 17 0
BBX 14 26 5 0
BITMAP
0C00
0600
0600
0300
0300
0000
0000
C01C
C038
E030
6070
60E0
70C0
31C0
3380
3B00
1F00
1E00
1C00
1C00
1C00
1800
1800
1800
1800
3800
ENDCHAR
STARTCHAR 1EF3
ENCODING 7923
SWIDTH 468 0
DWIDTH 13 0
BBX 16 28 0 -6
BITMAP
0380
0180
0180
00C0
00C0
0000
0000
1803
1807
1C06
1C0C
0C1C
0C18
0C38
0E30
0E70
0660
06C0
06C0
0780
0380
0300
0600
0E00
0C00
3C00
F800
E000
ENDCHAR
STARTCHAR 1EF4
ENCODING 7924
SWIDTH 612 0
DWIDTH 17 0
BBX 14 25 5 -6
BITMAP
C01C
C038
E030
6070
60E0
70C0
31C0
3380
3B00
1F00
1E00
1C00
1C00
1C00
1800
1800
1800
1800
3800
0000
0000
0000
3000
7000
7000
ENDCHAR
STARTCHAR 1EF5
ENCODING 7925
SWIDTH 468 0
DWIDTH 13 0
BBX 16 21 0 -6
BITMAP
1803
1807
1C06
1C0C
0C1C
0C18
0C38
0E30
0E70
0660
06C0
06C0
0780
0380
0300
0600
0E00
0C00
3C60
F870
E060
ENDCHAR
STARTCHAR 1EF6
ENCODING 7926
SWIDTH 612 0
DWIDTH 17 0
BBX 14 27 5 0
BITMAP
0080
07C0
0660
00C0
0180
0300
0000
0000
C01C
C038
E030
6070
60E0
70C0
31C0
3380
3B00
1F00
1E00
1C00
1C00
1C00
1800
1800
1800
1800
3800
ENDCHAR
STARTCHAR 1EF7
ENCODING 7927
SWIDTH 468 0
DWIDTH 13 0
BBX 16 28 0 -6
BITMAP
0070
00F8
0198
0018
0030
0040
0000
1803
1807
1C06
1C0C
0C1C
0C18
0C38
0E30
0E70
0660
06C0
06C0
0780
0380
0300
0600
0E00
0C00
3C00
F800
E000
ENDCHAR
STARTCHAR 1EF8
ENCODING 7928
SWIDTH 612 0
DWIDTH 17 0
BBX 14 25 5 0
BITMAP
0F30
1FE0
10C0
0000
0000
0000
C01C
C038
E030
6070
60E0
70C0
31C0
3380
3B00
1F00
1E00
1C00
1C00
1C00
1800
1800
1800
1800
3800
ENDCHAR
STARTCHAR 1EF9
ENCODING 7929
SWIDTH 468 0
DWIDTH 13 0
BBX 16 26 0 -6
BITMAP
03E4
037C
0000
0000
0000
1803
1807
1C06
1C0C
0C1C
0C18
0C38
0E30
0E70
0660
06C0
06C0
0780
0380
0300
0600
0E00
0C00
3C00
F800
E000
ENDCHAR
STARTCHAR 2013
ENCODING 8211
SWIDTH 648 0
DWIDTH 18 0
BBX 12 2 5 8
BITMAP
FFF0
FFE0
ENDCHAR
STARTCHAR 2014
ENCODING 8212
SWIDTH 756 0
DWIDTH 21 0
BBX 15 2 5 8
BITMAP
FFFE
FFFE
ENDCHAR
STARTCHAR 2018
ENCODING 8216
SWIDTH 288 0
DWIDTH 8 0
BBX 3 6 4 15
BITMAP
60
C0
80
C0
E0
E0
ENDCHAR
STARTCHAR 2019
ENCODING 8217
SWIDTH 252 0
DWIDTH 7 0
BBX 4 7 2 14
BITMAP
60
F0
F0
30
20
20
C0
ENDCHAR
STARTCHAR 201A
ENCODING 8218
SWIDTH 288 0
DWIDTH 8 0
BBX 4 7 2 -4
BITMAP
60
F0
F0
30
20
20
C0
ENDCHAR
STARTCHAR 201C
ENCODING 8220
SWIDTH 540 0
DWIDTH 15 0
BBX 9 6 5 15
BITMAP
6180
C200
8200
C700
E780
E780
ENDCHAR
STARTCHAR 201D
ENCODING 8221
SWIDTH 576 0
DWIDTH 16 0
BBX 9 7 5 14
BITMAP
6180
F380
F380
2180
2180
6100
C600
ENDCHAR
STARTCHAR 201E
ENCODING 8222
SWIDTH 504 0
DWIDTH 14 0
BBX 10 7 2 -4
BITMAP
61C0
F1C0
F1C0
30C0
20C0
2080
C300
ENDCHAR
STARTCHAR 2020
ENCODING 8224
SWIDTH 576 0
DWIDTH 16 0
BBX 11 25 5 -6
BITMAP
0600
0600
0600
0600
FFE0
FFE0
FFE0
0C00
0C00
0C00
1C00
1800
1800
1800
1800
1800
3800
3000
3000
3000
3000
3000
7000
6000
6000
ENDCHAR
STARTCHAR 2021
ENCODING 8225
SWIDTH 576 0
DWIDTH 16 0
BBX 14 25 2 -6
BITMAP
00C0
00C0
00C0
00C0
1FFC
1FFC
1FFC
0180
0180
0180
0380
0300
0300
0300
0300
0300
0700
0600
0600
FFE0
FFE0
0600
0C00
0C00
0C00
ENDCHAR
STARTCHAR 2022
ENCODING 8226
SWIDTH 360 0
DWIDTH 10 0
BBX 6 5 4 8
BITMAP
78
FC
FC
F8
70
ENDCHAR
STARTCHAR 2026
ENCODING 8230
SWIDTH 792 0
DWIDTH 22 0
BBX 18 3 2 0
BITMAP
60C180
F1E1C0
60C180
ENDCHAR
STARTCHAR 2030
ENCODING 8240
SWIDTH 1188 0
DWIDTH 33 0
BBX 30 20 3 0
BITMAP
0C000000
3F018000
63038000
63030000
43060000
C30C0000
660C0000
7C180000
00300000
00300000
00600000
00C00000
00C1C070
0183E0F8
0306318C
070C330C
060C330C
0C0C2308
1C0E6198
1807C1F0
ENDCHAR
STARTCHAR 2039
ENCODING 8249
SWIDTH 360 0
DWIDTH 10 0
BBX 8 12 3 3
BITMAP
03
06
0C
18
70
E0
C0
60
70
38
18
0C
ENDCHAR
STARTCHAR 203A
ENCODING 8250
SWIDTH 360 0
DWIDTH 10 0
BBX 8 12 2 3
BITMAP
30
38
1C
0C
06
07
03
06
1C
38
70
E0
ENDCHAR
STARTCHAR 2044
ENCODING 8260
SWIDTH 468 0
DWIDTH 13 0
BBX 16 19 0 0
BITMAP
0003
0006
000C
001C
0018
0030
0060
00E0
00C0
0180
0300
0700
0600
0C00
1800
3000
7000
6000
C000
ENDCHAR
STARTCHAR 2070
ENCODING 8304
SWIDTH 324 0
DWIDTH 9 0
BBX 8 11 3 10
BITMAP
1E
33
63
61
41
C3
C3
C3
46
7C
10
ENDCHAR
STARTCHAR 2074
ENCODING 8308
SWIDTH 324 0
DWIDTH 9 0
BBX 8 10 3 11
BITMAP
07
0E
1A
16
26
46
FF
FF
04
0C
ENDCHAR
STARTCHAR 2075
ENCODING 8309
SWIDTH 288 0
DWIDTH 8 0
BBX 8 10 3 11
BITMAP
3F
60
60
5C
7E
42
02
C2
C6
7C
ENDCHAR
STARTCHAR 2076
ENCODING 8310
SWIDTH 288 0
DWIDTH 8 0
BBX 7 10 3 11
BITMAP
0C
18
10
20
7E
42
C2
C2
C6
7C
ENDCHAR
STARTCHAR 2077
ENCODING 8311
SWIDTH 288 0
DWIDTH 8 0
BBX 7 10 4 11
BITMAP
FE
06
04
0C
18
10
30
20
60
C0
ENDCHAR
STARTCHAR 2078
ENCODING 8312
SWIDTH 324 0
DWIDTH 9 0
BBX 8 11 3 10
BITMAP
1E
33
61
63
3E
7E
C2
C3
C6
FC
38
ENDCHAR
STARTCHAR 2079
ENCODING 8313
SWIDTH 288 0
DWIDTH 8 0
BBX 7 10 4 11
BITMAP
3C
66
C2
86
86
FC
7C
18
30
60
ENDCHAR
STARTCHAR 2080
ENCODING 8320
SWIDTH 324 0
DWIDTH 9 0
BBX 8 11 0 -7
BITMAP
0E
3F
23
61
41
C3
C3
C3
C6
6E
38
ENDCHAR
STARTCHAR 2081
ENCODING 8321
SWIDTH 252 0
DWIDTH 7 0
BBX 5 10 0 -7
BITMAP
38
78
58
10
10
10
30
30
20
F8
ENDCHAR
STARTCHAR 2082
ENCODING 8322
SWIDTH 288 0
DWIDTH 8 0
BBX 8 11 0 -7
BITMAP
08
3E
63
43
02
06
0C
30
60
C0
FE
ENDCHAR
STARTCHAR 2083
ENCODING 8323
SWIDTH 288 0
DWIDTH 8 0
BBX 8 11 0 -7
BITMAP
1E
3F
63
03
02
1C
06
02
C2
EE
78
ENDCHAR
STARTCHAR 2084
ENCODING 8324
SWIDTH 324 0
DWIDTH 9 0
BBX 8 10 0 -7
BITMAP
06
0E
1A
36
26
46
FF
FF
04
0C
ENDCHAR
STARTCHAR 2085
ENCODING 8325
SWIDTH 288 0
DWIDTH 8 0
BBX 8 10 0 -7
BITMAP
7F
60
60
5C
66
02
02
C6
EC
78
ENDCHAR
STARTCHAR 2086
ENCODING 8326
SWIDTH 288 0
DWIDTH 8 0
BBX 7 11 0 -7
BITMAP
04
0C
18
30
7C
76
C2
C2
C2
EC
78
ENDCHAR
STARTCHAR 2087
ENCODING 8327
SWIDTH 288 0
DWIDTH 8 0
BBX 7 10 1 -7
BITMAP
FE
06
0C
08
18
10
30
60
40
C0
ENDCHAR
STARTCHAR 2088
ENCODING 8328
SWIDTH 324 0
DWIDTH 9 0
BBX 8 11 0 -7
BITMAP
0E
3F
63
63
62
3C
62
C3
C2
EE
7C
ENDCHAR
STARTCHAR 2089
ENCODING 8329
SWIDTH 288 0
DWIDTH 8 0
BBX 7 11 1 -7
BITMAP
18
7E
C6
82
86
C6
FC
08
18
30
60
ENDCHAR
STARTCHAR 20AB
ENCODING 8363
SWIDTH 576 0
DWIDTH 16 0
BBX 17 23 3 0
BITMAP
000600
000600
00FF80
00FF00
000E00
078C00
1FCC00
3C6C00
703C00
601C00
E01C00
C01800
C01800
C03800
C03800
E07800
7FF800
7F3000
040000
000000
000000
FFF000
FFF000
ENDCHAR
STARTCHAR 20AC
ENCODING 8364
SWIDTH 684 0
DWIDTH 19 0
BBX 18 19 2 0
BITMAP
00FE00
01FF80
038380
0701C0
0E00C0
0C00C0
1C0000
FFE000
180000
380000
380000
FFC000
380000
380180
180300
1C0700
1E1E00
0FFC00
03F000
ENDCHAR
STARTCHAR 2122
ENCODING 8482
SWIDTH 360 0
DWIDTH 10 0
BBX 9 4 4 15
BITMAP
FD80
4F80
4A80
4880
ENDCHAR
STARTCHAR 215B
ENCODING 8539
SWIDTH 864 0
DWIDTH 24 0
BBX 22 19 3 0
BITMAP
380060
7800C0
580180
100380
100300
300600
300C00
301C00
FC1800
003078
0060FC
00E18C
01C18C
0180F8
0301F8
060308
0E0308
0C03B8
1801F0
ENDCHAR
STARTCHAR 215C
ENCODING 8540
SWIDTH 828 0
DWIDTH 23 0
BBX 21 20 3 0
BITMAP
080000
3E00E0
6301C0
030180
060300
1C0600
060E00
060C00
C61800
7C3000
3070F0
0061F0
00C318
018310
0303F0
0703F0
060610
0C0630
180770
3803E0
ENDCHAR
STARTCHAR 215D
ENCODING 8541
SWIDTH 864 0
DWIDTH 24 0
BBX 22 20 3 0
BITMAP
3F0000
3F0060
6000C0
600180
5E0300
660700
060600
C60C00
EE1800
7C3800
003078
0060FC
00C18C
01C18C
0180F8
0301F8
060318
0C0318
1C03B8
1801F0
ENDCHAR
STARTCHAR 215E
ENCODING 8542
SWIDTH 900 0
DWIDTH 25 0
BBX 21 19 4 0
BITMAP
FE01C0
060180
0C0300
080600
180E00
300C00
201800
603000
C07000
0060F0
00C1F8
018318
038318
0301F0
0603F0
0C0210
180610
380730
3003E0
ENDCHAR
STARTCHAR 2212
ENCODING 8722
SWIDTH 576 0
DWIDTH 16 0
BBX 12 2 4 8
BITMAP
7FF0
FFE0
ENDCHAR
STARTCHAR 2215
ENCODING 8725
SWIDTH 504 0
DWIDTH 14 0
BBX 14 19 2 0
BITMAP
000C
0018
0038
0030
0060
00E0
00C0
0180
0380
0300
0600
0E00
0C00
1800
3800
3000
6000
E000
C000
ENDCHAR
STARTCHAR 2248
ENCODING 8776
SWIDTH 540 0
DWIDTH 15 0
BBX 12 9 3 4
BITMAP
1E30
3FE0
61C0
0000
0000
0000
3C60
6FC0
C380
ENDCHAR
STARTCHAR 2260
ENCODING 8800
SWIDTH 720 0
DWIDTH 20 0
BBX 15 17 4 0
BITMAP
000E
000C
0018
0030
3FFE
3FFE
00C0
0180
0380
0300
7FFC
FFFC
1C00
1800
3000
6000
E000
ENDCHAR
STARTCHAR 2264
ENCODING 8804
SWIDTH 576 0
DWIDTH 16 0
BBX 14 17 3 0
BITMAP
0004
0018
0078
01E0
0780
1E00
3800
1E00
0F00
03C0
00F0
0070
0010
0000
0000
FFF0
FFF0
ENDCHAR
STARTCHAR 2265
ENCODING 8805
SWIDTH 612 0
DWIDTH 17 0
BBX 13 17 3 0
BITMAP
1000
1C00
1E00
0780
01E0
00F0
0038
00F0
03C0
0F00
3C00
3000
4000
0000
0000
FFF0
FFF0
ENDCHAR
ENDFONT
